<svg xmlns="http://www.w3.org/2000/svg" xmlns:xlink="http://www.w3.org/1999/xlink" width="500" zoomAndPan="magnify" viewBox="0 0 375 374.999991" height="500" preserveAspectRatio="xMidYMid meet" version="1.0"><defs><filter x="0%" y="0%" width="100%" height="100%" id="bde2109594"><feColorMatrix values="0 0 0 0 1 0 0 0 0 1 0 0 0 0 1 0 0 0 1 0" color-interpolation-filters="sRGB"/></filter><g/><mask id="a530c41d78"><g filter="url(#bde2109594)"><rect x="-37.5" width="450" fill="#000000" y="-37.499999" height="449.999989" fill-opacity="0.5"/></g></mask><clipPath id="4e7fbb45ba"><rect x="0" width="370" y="0" height="52"/></clipPath><mask id="0e49b393e6"><g filter="url(#bde2109594)"><rect x="-37.5" width="450" fill="#000000" y="-37.499999" height="449.999989" fill-opacity="0.5"/></g></mask><clipPath id="122c3aa95f"><path d="M 0.191406 0.773438 L 310.691406 0.773438 L 310.691406 117 L 0.191406 117 Z M 0.191406 0.773438 " clip-rule="nonzero"/></clipPath><clipPath id="fb03900d57"><rect x="0" width="312" y="0" height="118"/></clipPath></defs><g mask="url(#a530c41d78)"><g transform="matrix(1, 0, 0, 1, 2, 172)"><g clip-path="url(#4e7fbb45ba)"><g fill="#000000" fill-opacity="1"><g transform="translate(1.375004, 34.667921)"><g><path d="M 31.390625 -4.359375 C 31.390625 -3.929688 31.171875 -3.421875 30.734375 -2.828125 C 30.304688 -2.234375 29.816406 -1.703125 29.265625 -1.234375 C 28.710938 -0.765625 28.257812 -0.53125 27.90625 -0.53125 C 27.65625 -0.53125 27.359375 -0.640625 27.015625 -0.859375 C 26.679688 -1.085938 26.382812 -1.316406 26.125 -1.546875 C 25.863281 -1.773438 25.734375 -1.890625 25.734375 -1.890625 L 25.15625 -3.4375 L 25.296875 -5.265625 L 24.8125 -6.390625 C 24.8125 -6.390625 24.726562 -6.566406 24.5625 -6.921875 C 24.40625 -7.273438 24.238281 -7.703125 24.0625 -8.203125 C 23.882812 -8.703125 23.765625 -9.160156 23.703125 -9.578125 C 23.410156 -10.804688 23.128906 -11.796875 22.859375 -12.546875 C 22.585938 -13.304688 22.238281 -13.6875 21.8125 -13.6875 C 21.488281 -13.6875 20.972656 -13.613281 20.265625 -13.46875 C 19.554688 -13.320312 18.773438 -13.164062 17.921875 -13 C 17.066406 -12.84375 16.238281 -12.765625 15.4375 -12.765625 C 14.757812 -12.765625 14.257812 -12.734375 13.9375 -12.671875 C 13.613281 -12.609375 13.398438 -12.429688 13.296875 -12.140625 L 12.625 -10.6875 L 12.28125 -9.4375 L 11.65625 -8.265625 L 11.21875 -7.109375 L 9.921875 -5.421875 L 8.796875 -2.515625 C 8.578125 -1.992188 8.160156 -1.539062 7.546875 -1.15625 C 6.929688 -0.769531 6.460938 -0.578125 6.140625 -0.578125 C 5.816406 -0.578125 5.4375 -0.722656 5 -1.015625 C 4.570312 -1.304688 4.195312 -1.6875 3.875 -2.15625 C 3.550781 -2.625 3.390625 -3.082031 3.390625 -3.53125 C 3.390625 -3.976562 3.523438 -4.515625 3.796875 -5.140625 C 4.066406 -5.773438 4.351562 -6.363281 4.65625 -6.90625 C 4.96875 -7.457031 5.191406 -7.832031 5.328125 -8.03125 C 5.390625 -8.320312 5.5 -8.78125 5.65625 -9.40625 C 5.820312 -10.039062 6 -10.566406 6.1875 -10.984375 C 6.414062 -11.429688 6.664062 -11.910156 6.9375 -12.421875 C 7.21875 -12.941406 7.460938 -13.378906 7.671875 -13.734375 C 7.878906 -14.085938 7.984375 -14.265625 7.984375 -14.265625 L 10.25 -18.625 L 11.65625 -22.546875 L 12.4375 -23.84375 L 14.171875 -27.671875 C 14.492188 -28.347656 14.804688 -29.015625 15.109375 -29.671875 C 15.421875 -30.335938 15.816406 -30.878906 16.296875 -31.296875 C 16.785156 -31.710938 17.398438 -31.921875 18.140625 -31.921875 C 19.046875 -31.921875 19.765625 -31.660156 20.296875 -31.140625 C 20.828125 -30.628906 21.414062 -29.664062 22.0625 -28.25 L 25.5 -20.125 L 25.828125 -18.53125 L 28.203125 -13.40625 C 28.328125 -13.238281 28.503906 -12.992188 28.734375 -12.671875 C 28.960938 -12.347656 29.09375 -12.054688 29.125 -11.796875 C 29.382812 -11.054688 29.550781 -10.347656 29.625 -9.671875 C 29.707031 -8.992188 29.878906 -8.382812 30.140625 -7.84375 C 30.460938 -7.09375 30.75 -6.410156 31 -5.796875 C 31.257812 -5.191406 31.390625 -4.710938 31.390625 -4.359375 Z M 20.953125 -19.0625 C 20.953125 -19.28125 20.828125 -19.597656 20.578125 -20.015625 C 20.335938 -20.441406 20.21875 -20.65625 20.21875 -20.65625 L 19.984375 -21.53125 L 18.859375 -23.515625 C 18.859375 -23.515625 18.8125 -23.695312 18.71875 -24.0625 C 18.625 -24.4375 18.445312 -24.625 18.1875 -24.625 C 17.957031 -24.625 17.640625 -24.347656 17.234375 -23.796875 C 16.835938 -23.253906 16.460938 -22.617188 16.109375 -21.890625 C 15.753906 -21.160156 15.515625 -20.523438 15.390625 -19.984375 C 15.347656 -19.753906 15.300781 -19.523438 15.25 -19.296875 C 15.207031 -19.078125 15.1875 -18.882812 15.1875 -18.71875 C 15.1875 -18.425781 15.269531 -18.28125 15.4375 -18.28125 L 19.6875 -18.578125 C 20.007812 -18.609375 20.300781 -18.660156 20.5625 -18.734375 C 20.820312 -18.816406 20.953125 -18.925781 20.953125 -19.0625 Z M 20.953125 -19.0625 "/></g></g></g><g fill="#000000" fill-opacity="1"><g transform="translate(35.37438, 34.667921)"><g><path d="M 25.015625 -11.65625 L 24.859375 -8.75 L 24.71875 -6.625 C 24.71875 -6.4375 24.738281 -6.125 24.78125 -5.6875 C 24.832031 -5.25 24.875 -4.84375 24.90625 -4.46875 C 24.945312 -4.101562 24.96875 -3.921875 24.96875 -3.921875 L 23.703125 -2.859375 L 22.828125 -1.890625 C 22.828125 -1.890625 22.65625 -1.921875 22.3125 -1.984375 C 21.976562 -2.046875 21.578125 -2.15625 21.109375 -2.3125 C 20.648438 -2.476562 20.25 -2.695312 19.90625 -2.96875 C 19.5625 -3.25 19.390625 -3.582031 19.390625 -3.96875 C 19.390625 -3.96875 19.390625 -3.972656 19.390625 -3.984375 C 19.390625 -4.003906 19.390625 -4.015625 19.390625 -4.015625 L 19.5 -5.328125 L 19.25 -6.71875 L 19.546875 -9.1875 L 19.546875 -12.875 C 19.546875 -13 19.472656 -13.28125 19.328125 -13.71875 C 19.179688 -14.15625 18.929688 -14.570312 18.578125 -14.96875 C 18.222656 -15.375 17.722656 -15.578125 17.078125 -15.578125 C 16.398438 -15.578125 15.722656 -15.390625 15.046875 -15.015625 C 14.367188 -14.648438 13.945312 -14.414062 13.78125 -14.3125 L 13.015625 -13.453125 L 11.421875 -12.328125 C 11.316406 -12.109375 11.164062 -11.796875 10.96875 -11.390625 C 10.78125 -10.984375 10.554688 -10.640625 10.296875 -10.359375 C 10.109375 -10.035156 10 -9.601562 9.96875 -9.0625 C 9.9375 -8.53125 9.921875 -8.039062 9.921875 -7.59375 C 9.921875 -6.851562 9.96875 -6.320312 10.0625 -6 C 10.15625 -5.675781 10.25 -5.367188 10.34375 -5.078125 C 10.445312 -4.785156 10.5 -4.316406 10.5 -3.671875 C 10.5 -3.191406 10.394531 -2.664062 10.1875 -2.09375 C 9.976562 -1.53125 9.660156 -1.046875 9.234375 -0.640625 C 8.816406 -0.242188 8.285156 -0.046875 7.640625 -0.046875 C 7.285156 -0.046875 6.90625 -0.207031 6.5 -0.53125 C 6.101562 -0.851562 5.765625 -1.164062 5.484375 -1.46875 C 5.210938 -1.78125 5.078125 -1.9375 5.078125 -1.9375 L 5.265625 -4.25 L 5.078125 -5.859375 L 5.421875 -8.46875 L 5.171875 -16.25 L 5.5625 -17.953125 L 5.46875 -19.546875 L 6 -20.21875 L 6.828125 -21.625 C 6.828125 -21.625 6.984375 -21.566406 7.296875 -21.453125 C 7.617188 -21.335938 8 -21.191406 8.4375 -21.015625 C 8.875 -20.835938 9.242188 -20.648438 9.546875 -20.453125 C 9.859375 -20.265625 10.015625 -20.070312 10.015625 -19.875 L 9.921875 -18.671875 C 9.921875 -18.640625 9.921875 -18.625 9.921875 -18.625 C 9.921875 -18.625 9.921875 -18.609375 9.921875 -18.578125 C 9.921875 -18.347656 9.992188 -18.175781 10.140625 -18.0625 C 10.285156 -17.957031 10.421875 -17.90625 10.546875 -17.90625 C 10.609375 -17.90625 10.65625 -17.921875 10.6875 -17.953125 C 11.007812 -18.109375 11.289062 -18.320312 11.53125 -18.59375 C 11.78125 -18.875 11.90625 -19.015625 11.90625 -19.015625 L 13.0625 -19.734375 C 13.25 -19.867188 13.738281 -20.113281 14.53125 -20.46875 C 15.320312 -20.820312 16.234375 -21 17.265625 -21 C 18.265625 -21 19.222656 -20.738281 20.140625 -20.21875 C 21.066406 -19.707031 22 -18.851562 22.9375 -17.65625 C 23.539062 -16.914062 23.988281 -16.242188 24.28125 -15.640625 C 24.570312 -15.046875 24.71875 -14.570312 24.71875 -14.21875 L 24.671875 -13.34375 Z M 25.015625 -11.65625 "/></g></g></g><g fill="#000000" fill-opacity="1"><g transform="translate(64.779251, 34.667921)"><g><path d="M 19.734375 -21.625 C 19.734375 -21.394531 19.597656 -21.148438 19.328125 -20.890625 C 19.054688 -20.640625 18.804688 -20.398438 18.578125 -20.171875 C 18.347656 -19.910156 18.097656 -19.644531 17.828125 -19.375 C 17.554688 -19.101562 17.242188 -18.96875 16.890625 -18.96875 C 16.847656 -18.96875 16.816406 -18.96875 16.796875 -18.96875 C 16.785156 -18.96875 16.765625 -18.96875 16.734375 -18.96875 L 15.921875 -19.0625 L 14.609375 -18.8125 L 13.6875 -18.765625 L 13.640625 -14.796875 L 13.0625 -12.390625 L 13.296875 -9.28125 L 13.15625 -7.015625 L 13.453125 -3.921875 L 13.15625 -2.515625 L 13.25 -1.59375 L 12.578125 -0.390625 L 11.46875 1.15625 L 10.734375 1.015625 L 9.28125 1.0625 C 9.28125 1.0625 9.191406 0.882812 9.015625 0.53125 C 8.835938 0.175781 8.664062 -0.234375 8.5 -0.703125 C 8.34375 -1.171875 8.265625 -1.566406 8.265625 -1.890625 C 8.265625 -2.304688 8.320312 -2.734375 8.4375 -3.171875 C 8.550781 -3.609375 8.640625 -3.9375 8.703125 -4.15625 L 8.46875 -8.5625 L 9 -10.15625 L 9.046875 -11.21875 L 8.796875 -13.5 L 8.859375 -16.453125 L 9.140625 -18.1875 L 8.859375 -18.71875 L 5.265625 -19.0625 C 4.785156 -19.09375 4.390625 -19.273438 4.078125 -19.609375 C 3.773438 -19.953125 3.625 -20.414062 3.625 -21 C 3.625 -21.21875 3.710938 -21.59375 3.890625 -22.125 C 4.066406 -22.664062 4.242188 -23.164062 4.421875 -23.625 C 4.597656 -24.09375 4.6875 -24.328125 4.6875 -24.328125 C 4.6875 -24.328125 4.851562 -24.285156 5.1875 -24.203125 C 5.53125 -24.128906 5.921875 -24.039062 6.359375 -23.9375 C 6.796875 -23.84375 7.128906 -23.796875 7.359375 -23.796875 C 7.742188 -23.828125 8.171875 -23.875 8.640625 -23.9375 C 9.109375 -24.007812 9.34375 -24.238281 9.34375 -24.625 C 9.34375 -24.625 9.34375 -24.628906 9.34375 -24.640625 C 9.34375 -24.660156 9.34375 -24.671875 9.34375 -24.671875 L 9.140625 -27 L 9.4375 -28.25 L 9.53125 -29.125 L 9.875 -30.09375 C 9.875 -30.15625 9.863281 -30.21875 9.84375 -30.28125 C 9.820312 -30.34375 9.8125 -30.425781 9.8125 -30.53125 C 9.8125 -30.882812 9.882812 -31.300781 10.03125 -31.78125 C 10.175781 -32.269531 10.46875 -32.695312 10.90625 -33.0625 C 11.34375 -33.4375 11.976562 -33.625 12.8125 -33.625 C 14.238281 -33.625 14.953125 -32.894531 14.953125 -31.4375 C 14.953125 -31.375 14.910156 -31.164062 14.828125 -30.8125 C 14.742188 -30.457031 14.660156 -30.101562 14.578125 -29.75 C 14.503906 -29.394531 14.453125 -29.171875 14.421875 -29.078125 L 14.515625 -27.09375 L 14.375 -25.5 C 14.375 -25.300781 14.410156 -25.117188 14.484375 -24.953125 C 14.566406 -24.796875 14.722656 -24.71875 14.953125 -24.71875 L 16.984375 -24.53125 C 17.335938 -24.5 17.726562 -24.335938 18.15625 -24.046875 C 18.59375 -23.753906 18.960938 -23.390625 19.265625 -22.953125 C 19.578125 -22.515625 19.734375 -22.070312 19.734375 -21.625 Z M 19.734375 -21.625 "/></g></g></g><g fill="#000000" fill-opacity="1"><g transform="translate(85.091826, 34.667921)"><g><path d="M 23.078125 -13.40625 C 23.078125 -12.300781 22.679688 -11.328125 21.890625 -10.484375 C 21.097656 -9.648438 20.140625 -9.234375 19.015625 -9.234375 C 17.691406 -9.234375 16.300781 -9.382812 14.84375 -9.6875 C 13.394531 -10 12.15625 -10.15625 11.125 -10.15625 C 9.800781 -10.15625 9.140625 -9.847656 9.140625 -9.234375 C 9.140625 -9.109375 9.207031 -8.945312 9.34375 -8.75 C 9.757812 -8.207031 10.296875 -7.6875 10.953125 -7.1875 C 11.617188 -6.6875 12.25 -6.265625 12.84375 -5.921875 C 13.4375 -5.585938 13.816406 -5.367188 13.984375 -5.265625 L 15.28125 -4.9375 L 16.890625 -4.796875 L 17.703125 -4.015625 L 18.921875 -3.234375 L 19.109375 -0.71875 L 18.328125 0 L 17.796875 0.78125 C 17.796875 0.78125 17.578125 0.859375 17.140625 1.015625 C 16.710938 1.171875 16.382812 1.25 16.15625 1.25 C 15.351562 1.25 14.5 1.078125 13.59375 0.734375 C 12.6875 0.398438 11.921875 0.0664062 11.296875 -0.265625 C 10.671875 -0.609375 10.359375 -0.78125 10.359375 -0.78125 L 8.421875 -1.9375 L 7.890625 -2.859375 L 5.171875 -5.953125 C 5.171875 -5.953125 5.109375 -6.097656 4.984375 -6.390625 C 4.859375 -6.679688 4.726562 -7.023438 4.59375 -7.421875 C 4.46875 -7.828125 4.40625 -8.191406 4.40625 -8.515625 C 4.40625 -8.929688 4.457031 -9.363281 4.5625 -9.8125 C 4.675781 -10.269531 4.753906 -10.578125 4.796875 -10.734375 L 4.890625 -13.40625 C 4.890625 -13.625 4.941406 -13.988281 5.046875 -14.5 C 5.160156 -15.019531 5.273438 -15.515625 5.390625 -15.984375 C 5.503906 -16.453125 5.5625 -16.6875 5.5625 -16.6875 C 5.5625 -16.6875 5.785156 -16.925781 6.234375 -17.40625 C 6.691406 -17.894531 7.242188 -18.445312 7.890625 -19.0625 C 8.535156 -19.675781 9.113281 -20.144531 9.625 -20.46875 C 10.269531 -20.851562 10.863281 -21.132812 11.40625 -21.3125 C 11.957031 -21.488281 12.234375 -21.578125 12.234375 -21.578125 L 13.40625 -22.0625 L 16.0625 -22.296875 C 18.1875 -22.296875 19.882812 -21.515625 21.15625 -19.953125 C 22.4375 -18.390625 23.078125 -16.207031 23.078125 -13.40625 Z M 18.671875 -15.578125 C 18.671875 -16.023438 18.4375 -16.539062 17.96875 -17.125 C 17.5 -17.707031 16.957031 -18 16.34375 -18 C 16.09375 -18 15.804688 -17.941406 15.484375 -17.828125 C 15.160156 -17.710938 15 -17.65625 15 -17.65625 L 13.828125 -17.359375 L 11.90625 -17.421875 C 11.476562 -17.421875 11.144531 -17.207031 10.90625 -16.78125 C 10.664062 -16.363281 10.546875 -15.960938 10.546875 -15.578125 C 10.546875 -15.410156 10.566406 -15.226562 10.609375 -15.03125 C 10.660156 -14.84375 10.769531 -14.6875 10.9375 -14.5625 C 11.09375 -14.46875 11.273438 -14.410156 11.484375 -14.390625 C 11.691406 -14.378906 11.910156 -14.375 12.140625 -14.375 C 12.304688 -14.375 12.476562 -14.375 12.65625 -14.375 C 12.832031 -14.375 12.984375 -14.375 13.109375 -14.375 C 13.203125 -14.375 13.296875 -14.363281 13.390625 -14.34375 C 13.492188 -14.320312 13.578125 -14.3125 13.640625 -14.3125 L 15.1875 -14.125 L 16.890625 -14.171875 C 17.722656 -14.203125 18.226562 -14.335938 18.40625 -14.578125 C 18.582031 -14.828125 18.671875 -15.160156 18.671875 -15.578125 Z M 18.671875 -15.578125 "/></g></g></g><g fill="#000000" fill-opacity="1"><g transform="translate(111.836712, 34.667921)"><g/></g></g><g fill="#000000" fill-opacity="1"><g transform="translate(130.021304, 34.667921)"><g><path d="M 31.6875 -28.5 L 31.109375 -25.78125 L 30.578125 -20.84375 C 30.472656 -19.8125 30.25 -18.753906 29.90625 -17.671875 C 29.570312 -16.597656 29.195312 -15.582031 28.78125 -14.625 C 28.363281 -13.675781 27.992188 -12.867188 27.671875 -12.203125 C 27.347656 -11.546875 27.140625 -11.140625 27.046875 -10.984375 L 26.21875 -9.09375 L 22.9375 -6.140625 C 22.9375 -6.140625 22.648438 -5.960938 22.078125 -5.609375 C 21.515625 -5.253906 20.8125 -4.84375 19.96875 -4.375 C 19.132812 -3.90625 18.28125 -3.492188 17.40625 -3.140625 C 16.539062 -2.785156 15.785156 -2.609375 15.140625 -2.609375 C 13.398438 -2.609375 11.929688 -2.859375 10.734375 -3.359375 C 9.546875 -3.859375 8.632812 -4.359375 8 -4.859375 C 7.375 -5.359375 7.0625 -5.609375 7.0625 -5.609375 L 6.625 -6.71875 C 6.394531 -6.976562 6.078125 -7.519531 5.671875 -8.34375 C 5.273438 -9.164062 4.914062 -10.414062 4.59375 -12.09375 C 4.269531 -13.769531 4.109375 -15.976562 4.109375 -18.71875 C 4.109375 -19.914062 4.148438 -20.914062 4.234375 -21.71875 C 4.316406 -22.53125 4.421875 -23.289062 4.546875 -24 L 5.171875 -28.203125 L 5.265625 -30.28125 C 5.265625 -30.539062 5.414062 -30.882812 5.71875 -31.3125 C 6.03125 -31.75 6.40625 -32.15625 6.84375 -32.53125 C 7.28125 -32.90625 7.675781 -33.09375 8.03125 -33.09375 C 8.582031 -33.09375 9.066406 -32.9375 9.484375 -32.625 C 9.898438 -32.320312 10.125 -31.992188 10.15625 -31.640625 L 10.546875 -29.703125 L 10.296875 -28.5 L 10.734375 -27.28125 L 9.96875 -24.046875 L 9.4375 -22.640625 L 9.671875 -13.6875 L 10.25 -12 L 10.546875 -10.734375 C 10.742188 -10.410156 11.171875 -9.957031 11.828125 -9.375 C 12.484375 -8.800781 13.394531 -8.515625 14.5625 -8.515625 C 15.5625 -8.515625 16.492188 -8.707031 17.359375 -9.09375 C 18.234375 -9.476562 18.976562 -9.878906 19.59375 -10.296875 C 20.207031 -10.722656 20.59375 -11 20.75 -11.125 L 22.5 -14.46875 L 23.21875 -15.1875 C 23.3125 -15.382812 23.472656 -15.78125 23.703125 -16.375 C 23.929688 -16.96875 24.179688 -17.664062 24.453125 -18.46875 C 24.722656 -19.28125 24.945312 -20.097656 25.125 -20.921875 C 25.300781 -21.742188 25.390625 -22.492188 25.390625 -23.171875 C 25.390625 -23.691406 25.378906 -24.132812 25.359375 -24.5 C 25.347656 -24.875 25.34375 -25.222656 25.34375 -25.546875 C 25.34375 -25.992188 25.375 -26.367188 25.4375 -26.671875 C 25.507812 -26.984375 25.640625 -27.300781 25.828125 -27.625 L 27.046875 -29.703125 C 27.335938 -30.253906 27.78125 -30.578125 28.375 -30.671875 C 28.96875 -30.765625 29.554688 -30.8125 30.140625 -30.8125 C 30.585938 -30.8125 30.960938 -30.609375 31.265625 -30.203125 C 31.578125 -29.804688 31.734375 -29.363281 31.734375 -28.875 C 31.734375 -28.8125 31.722656 -28.75 31.703125 -28.6875 C 31.691406 -28.625 31.6875 -28.5625 31.6875 -28.5 Z M 31.6875 -28.5 "/></g></g></g><g fill="#000000" fill-opacity="1"><g transform="translate(163.440316, 34.667921)"><g><path d="M 26.3125 -8.796875 C 26.3125 -7.347656 25.945312 -5.988281 25.21875 -4.71875 C 24.5 -3.445312 23.535156 -2.414062 22.328125 -1.625 C 21.117188 -0.832031 19.800781 -0.4375 18.375 -0.4375 C 17.832031 -0.4375 17.238281 -0.515625 16.59375 -0.671875 C 15.945312 -0.835938 15.40625 -0.992188 14.96875 -1.140625 C 14.53125 -1.285156 14.3125 -1.359375 14.3125 -1.359375 L 12.625 -1.734375 C 12.625 -1.734375 12.421875 -1.910156 12.015625 -2.265625 C 11.617188 -2.628906 11.226562 -2.8125 10.84375 -2.8125 C 10.519531 -2.8125 10.300781 -2.695312 10.1875 -2.46875 C 10.070312 -2.238281 10 -2.03125 9.96875 -1.84375 L 9.921875 -1.203125 L 9.578125 0.046875 L 9.484375 2.953125 L 9.234375 3.828125 L 9.765625 7.546875 L 9.484375 9.34375 L 9.53125 10.5 C 9.53125 10.53125 9.53125 10.546875 9.53125 10.546875 C 9.53125 10.546875 9.53125 10.5625 9.53125 10.59375 C 9.53125 10.976562 9.351562 11.378906 9 11.796875 C 8.644531 12.222656 8.203125 12.578125 7.671875 12.859375 C 7.140625 13.148438 6.597656 13.296875 6.046875 13.296875 C 5.816406 13.296875 5.550781 13.191406 5.25 12.984375 C 4.945312 12.773438 4.6875 12.570312 4.46875 12.375 C 4.257812 12.1875 4.15625 12.09375 4.15625 12.09375 L 4.203125 10.84375 L 4.109375 9.1875 C 4.109375 9.1875 4.125 8.953125 4.15625 8.484375 C 4.1875 8.015625 4.21875 7.554688 4.25 7.109375 C 4.320312 6.460938 4.378906 5.6875 4.421875 4.78125 C 4.472656 3.882812 4.519531 3.054688 4.5625 2.296875 C 4.613281 1.535156 4.65625 1.03125 4.6875 0.78125 L 4.84375 -1.640625 L 4.84375 -4.453125 L 5.171875 -5.703125 L 5.171875 -6.875 L 5.65625 -8.65625 L 5.65625 -12.234375 L 6.046875 -14.515625 L 6.140625 -16.34375 L 6.4375 -17.171875 L 6.390625 -18.4375 C 6.390625 -18.4375 6.390625 -18.441406 6.390625 -18.453125 C 6.390625 -18.472656 6.390625 -18.484375 6.390625 -18.484375 C 6.390625 -19.128906 6.644531 -19.71875 7.15625 -20.25 C 7.675781 -20.78125 8.175781 -21.046875 8.65625 -21.046875 C 9.175781 -21.046875 9.539062 -20.914062 9.75 -20.65625 C 9.957031 -20.394531 10.109375 -20.09375 10.203125 -19.75 C 10.304688 -19.414062 10.4375 -19.117188 10.59375 -18.859375 C 10.757812 -18.609375 11.035156 -18.484375 11.421875 -18.484375 C 11.742188 -18.484375 12.046875 -18.570312 12.328125 -18.75 C 12.617188 -18.925781 13.039062 -19.09375 13.59375 -19.25 C 14.144531 -19.414062 14.9375 -19.5 15.96875 -19.5 C 17 -19.5 17.835938 -19.414062 18.484375 -19.25 C 19.128906 -19.09375 19.53125 -18.984375 19.6875 -18.921875 L 20.84375 -18.671875 L 22.203125 -17.796875 L 23.5625 -17.265625 L 24.8125 -14.375 C 24.8125 -14.375 24.941406 -14.15625 25.203125 -13.71875 C 25.460938 -13.28125 25.710938 -12.648438 25.953125 -11.828125 C 26.191406 -11.003906 26.3125 -9.992188 26.3125 -8.796875 Z M 21.28125 -9.34375 C 21.28125 -10.65625 20.875 -11.738281 20.0625 -12.59375 C 19.257812 -13.457031 18.203125 -13.890625 16.890625 -13.890625 C 16.046875 -13.890625 15.203125 -13.734375 14.359375 -13.421875 C 13.523438 -13.117188 12.828125 -12.679688 12.265625 -12.109375 C 11.703125 -11.546875 11.421875 -10.863281 11.421875 -10.0625 C 11.421875 -9.289062 11.582031 -8.65625 11.90625 -8.15625 C 12.226562 -7.65625 12.582031 -7.265625 12.96875 -6.984375 C 13.351562 -6.710938 13.609375 -6.546875 13.734375 -6.484375 L 16.5 -6.390625 L 17.84375 -5.90625 C 18.132812 -5.9375 18.554688 -6.039062 19.109375 -6.21875 C 19.660156 -6.394531 20.160156 -6.722656 20.609375 -7.203125 C 21.054688 -7.691406 21.28125 -8.40625 21.28125 -9.34375 Z M 21.28125 -9.34375 "/></g></g></g><g fill="#000000" fill-opacity="1"><g transform="translate(193.570639, 34.667921)"><g/></g></g><g fill="#000000" fill-opacity="1"><g transform="translate(211.755231, 34.667921)"><g><path d="M 35.9375 -24 L 34.109375 -19.015625 L 34.0625 -17.84375 L 32.84375 -14.75 L 32.21875 -11.703125 L 30.234375 -7.984375 L 29.75 -6 L 29.078125 -4.984375 L 28.0625 -2.90625 C 27.707031 -2.257812 27.238281 -1.617188 26.65625 -0.984375 C 26.070312 -0.359375 25.585938 -0.046875 25.203125 -0.046875 C 24.492188 -0.046875 23.945312 -0.296875 23.5625 -0.796875 C 23.175781 -1.296875 22.785156 -1.804688 22.390625 -2.328125 L 17.90625 -7.890625 L 15.921875 -9.671875 L 14.375 -12.1875 L 12.921875 -13.828125 L 12.578125 -14.90625 L 12.09375 -15.53125 L 11.609375 -15.8125 C 11.578125 -15.84375 11.515625 -15.859375 11.421875 -15.859375 C 11.253906 -15.859375 11.082031 -15.78125 10.90625 -15.625 C 10.726562 -15.46875 10.640625 -15.257812 10.640625 -15 L 10.6875 -13.015625 L 10.453125 -9.765625 L 9.34375 -4.84375 L 7.984375 -1.640625 C 7.984375 -1.640625 7.738281 -1.539062 7.25 -1.34375 C 6.769531 -1.15625 6.367188 -1.0625 6.046875 -1.0625 C 5.753906 -1.0625 5.472656 -1.210938 5.203125 -1.515625 C 4.929688 -1.828125 4.695312 -2.128906 4.5 -2.421875 C 4.300781 -2.710938 4.203125 -2.859375 4.203125 -2.859375 L 4.203125 -4.5 L 4.84375 -6.09375 L 4.796875 -6.875 C 4.796875 -6.875 4.859375 -7.242188 4.984375 -7.984375 C 5.109375 -8.722656 5.257812 -9.613281 5.4375 -10.65625 C 5.613281 -11.707031 5.78125 -12.738281 5.9375 -13.75 C 6.101562 -14.769531 6.203125 -15.570312 6.234375 -16.15625 L 6.34375 -19.015625 C 6.375 -19.660156 6.515625 -20.179688 6.765625 -20.578125 C 7.023438 -20.984375 7.171875 -21.363281 7.203125 -21.71875 C 7.234375 -22.101562 7.253906 -22.570312 7.265625 -23.125 C 7.285156 -23.675781 7.296875 -24.148438 7.296875 -24.546875 C 7.296875 -24.953125 7.296875 -25.15625 7.296875 -25.15625 C 7.296875 -25.15625 7.429688 -25.335938 7.703125 -25.703125 C 7.984375 -26.078125 8.328125 -26.445312 8.734375 -26.8125 C 9.140625 -27.1875 9.550781 -27.375 9.96875 -27.375 C 10.226562 -27.375 10.523438 -27.3125 10.859375 -27.1875 C 11.203125 -27.0625 11.507812 -26.925781 11.78125 -26.78125 C 12.050781 -26.632812 12.1875 -26.5625 12.1875 -26.5625 L 13.0625 -23.21875 L 17.515625 -16.546875 C 18.253906 -15.453125 18.960938 -14.546875 19.640625 -13.828125 C 20.316406 -13.117188 21.109375 -12.25 22.015625 -11.21875 C 22.335938 -10.863281 22.601562 -10.441406 22.8125 -9.953125 C 23.019531 -9.472656 23.257812 -9.046875 23.53125 -8.671875 C 23.8125 -8.304688 24.191406 -8.125 24.671875 -8.125 C 24.828125 -8.125 24.953125 -8.234375 25.046875 -8.453125 C 25.148438 -8.679688 25.21875 -8.910156 25.25 -9.140625 C 25.3125 -9.585938 25.445312 -9.945312 25.65625 -10.21875 C 25.875 -10.5 26.09375 -10.898438 26.3125 -11.421875 C 26.601562 -11.992188 26.910156 -12.707031 27.234375 -13.5625 C 27.554688 -14.414062 27.851562 -15.269531 28.125 -16.125 C 28.40625 -16.988281 28.632812 -17.703125 28.8125 -18.265625 C 28.988281 -18.828125 29.078125 -19.109375 29.078125 -19.109375 L 29.453125 -21.234375 L 29.9375 -22.25 C 29.976562 -22.414062 30.019531 -22.648438 30.0625 -22.953125 C 30.113281 -23.253906 30.15625 -23.566406 30.1875 -23.890625 C 30.3125 -24.285156 30.453125 -24.722656 30.609375 -25.203125 C 30.773438 -25.679688 30.890625 -26.035156 30.953125 -26.265625 C 30.992188 -26.429688 31.078125 -26.738281 31.203125 -27.1875 C 31.328125 -27.632812 31.597656 -28.0625 32.015625 -28.46875 C 32.441406 -28.875 33.101562 -29.078125 34 -29.078125 C 34.675781 -29.078125 35.21875 -28.71875 35.625 -28 C 36.03125 -27.289062 36.234375 -26.503906 36.234375 -25.640625 C 36.234375 -25.023438 36.132812 -24.476562 35.9375 -24 Z M 35.9375 -24 "/></g></g></g><g fill="#000000" fill-opacity="1"><g transform="translate(250.252397, 34.667921)"><g><path d="M 22.203125 -5.953125 C 22.203125 -5.953125 22.175781 -5.738281 22.125 -5.3125 C 22.082031 -4.894531 22.007812 -4.410156 21.90625 -3.859375 C 21.8125 -3.316406 21.691406 -2.816406 21.546875 -2.359375 C 21.398438 -1.910156 21.234375 -1.65625 21.046875 -1.59375 C 20.816406 -1.5 20.554688 -1.453125 20.265625 -1.453125 C 19.910156 -1.453125 19.570312 -1.5 19.25 -1.59375 C 18.925781 -1.6875 18.765625 -1.734375 18.765625 -1.734375 L 17.125 -2.859375 L 13.6875 -2.125 C 12.914062 -2 12.164062 -1.898438 11.4375 -1.828125 C 10.71875 -1.765625 10.050781 -1.734375 9.4375 -1.734375 C 8.375 -1.734375 7.507812 -2.054688 6.84375 -2.703125 C 6.1875 -3.347656 5.535156 -4.078125 4.890625 -4.890625 C 4.335938 -5.566406 3.875 -6.273438 3.5 -7.015625 C 3.132812 -7.753906 2.953125 -8.332031 2.953125 -8.75 C 2.953125 -9.882812 3.117188 -10.953125 3.453125 -11.953125 C 3.796875 -12.953125 4.191406 -13.835938 4.640625 -14.609375 C 5.097656 -15.378906 5.492188 -15.984375 5.828125 -16.421875 C 6.171875 -16.859375 6.34375 -17.078125 6.34375 -17.078125 L 7.734375 -18.921875 L 8.65625 -19.34375 C 8.65625 -19.34375 8.96875 -19.492188 9.59375 -19.796875 C 10.226562 -20.109375 10.914062 -20.265625 11.65625 -20.265625 C 12.039062 -20.265625 12.46875 -20.109375 12.9375 -19.796875 C 13.40625 -19.492188 13.800781 -19.34375 14.125 -19.34375 C 14.25 -19.34375 14.347656 -19.378906 14.421875 -19.453125 L 15.484375 -20.46875 C 15.484375 -20.46875 15.648438 -20.53125 15.984375 -20.65625 C 16.328125 -20.78125 16.644531 -20.84375 16.9375 -20.84375 C 17.320312 -20.84375 17.753906 -20.578125 18.234375 -20.046875 C 18.722656 -19.515625 19.160156 -18.84375 19.546875 -18.03125 C 19.929688 -17.226562 20.171875 -16.425781 20.265625 -15.625 L 20.515625 -13.78125 L 21.53125 -9.484375 L 21.578125 -7.59375 C 21.578125 -7.59375 21.628906 -7.453125 21.734375 -7.171875 C 21.847656 -6.898438 21.953125 -6.628906 22.046875 -6.359375 C 22.148438 -6.085938 22.203125 -5.953125 22.203125 -5.953125 Z M 15.921875 -10.296875 C 15.921875 -10.554688 15.867188 -10.804688 15.765625 -11.046875 C 15.671875 -11.296875 15.625 -11.421875 15.625 -11.421875 L 14.65625 -12.921875 L 14.171875 -14.125 C 14.046875 -14.414062 13.859375 -14.609375 13.609375 -14.703125 C 13.367188 -14.796875 13.070312 -14.84375 12.71875 -14.84375 C 12.53125 -14.84375 12.328125 -14.832031 12.109375 -14.8125 C 11.898438 -14.800781 11.6875 -14.796875 11.46875 -14.796875 C 10.820312 -14.796875 10.179688 -14.585938 9.546875 -14.171875 C 8.921875 -13.753906 8.398438 -13.210938 7.984375 -12.546875 C 7.566406 -11.890625 7.359375 -11.191406 7.359375 -10.453125 C 7.359375 -10.316406 7.421875 -10.085938 7.546875 -9.765625 C 7.671875 -9.441406 7.789062 -9.148438 7.90625 -8.890625 C 8.019531 -8.640625 8.078125 -8.515625 8.078125 -8.515625 L 9.140625 -7.734375 L 9.625 -6.96875 C 9.789062 -6.738281 10.070312 -6.597656 10.46875 -6.546875 C 10.875 -6.503906 11.140625 -6.484375 11.265625 -6.484375 C 12.691406 -6.484375 13.820312 -6.835938 14.65625 -7.546875 C 15.5 -8.253906 15.921875 -9.171875 15.921875 -10.296875 Z M 15.921875 -10.296875 "/></g></g></g><g fill="#000000" fill-opacity="1"><g transform="translate(275.884919, 34.667921)"><g><path d="M 19.734375 -21.625 C 19.734375 -21.394531 19.597656 -21.148438 19.328125 -20.890625 C 19.054688 -20.640625 18.804688 -20.398438 18.578125 -20.171875 C 18.347656 -19.910156 18.097656 -19.644531 17.828125 -19.375 C 17.554688 -19.101562 17.242188 -18.96875 16.890625 -18.96875 C 16.847656 -18.96875 16.816406 -18.96875 16.796875 -18.96875 C 16.785156 -18.96875 16.765625 -18.96875 16.734375 -18.96875 L 15.921875 -19.0625 L 14.609375 -18.8125 L 13.6875 -18.765625 L 13.640625 -14.796875 L 13.0625 -12.390625 L 13.296875 -9.28125 L 13.15625 -7.015625 L 13.453125 -3.921875 L 13.15625 -2.515625 L 13.25 -1.59375 L 12.578125 -0.390625 L 11.46875 1.15625 L 10.734375 1.015625 L 9.28125 1.0625 C 9.28125 1.0625 9.191406 0.882812 9.015625 0.53125 C 8.835938 0.175781 8.664062 -0.234375 8.5 -0.703125 C 8.34375 -1.171875 8.265625 -1.566406 8.265625 -1.890625 C 8.265625 -2.304688 8.320312 -2.734375 8.4375 -3.171875 C 8.550781 -3.609375 8.640625 -3.9375 8.703125 -4.15625 L 8.46875 -8.5625 L 9 -10.15625 L 9.046875 -11.21875 L 8.796875 -13.5 L 8.859375 -16.453125 L 9.140625 -18.1875 L 8.859375 -18.71875 L 5.265625 -19.0625 C 4.785156 -19.09375 4.390625 -19.273438 4.078125 -19.609375 C 3.773438 -19.953125 3.625 -20.414062 3.625 -21 C 3.625 -21.21875 3.710938 -21.59375 3.890625 -22.125 C 4.066406 -22.664062 4.242188 -23.164062 4.421875 -23.625 C 4.597656 -24.09375 4.6875 -24.328125 4.6875 -24.328125 C 4.6875 -24.328125 4.851562 -24.285156 5.1875 -24.203125 C 5.53125 -24.128906 5.921875 -24.039062 6.359375 -23.9375 C 6.796875 -23.84375 7.128906 -23.796875 7.359375 -23.796875 C 7.742188 -23.828125 8.171875 -23.875 8.640625 -23.9375 C 9.109375 -24.007812 9.34375 -24.238281 9.34375 -24.625 C 9.34375 -24.625 9.34375 -24.628906 9.34375 -24.640625 C 9.34375 -24.660156 9.34375 -24.671875 9.34375 -24.671875 L 9.140625 -27 L 9.4375 -28.25 L 9.53125 -29.125 L 9.875 -30.09375 C 9.875 -30.15625 9.863281 -30.21875 9.84375 -30.28125 C 9.820312 -30.34375 9.8125 -30.425781 9.8125 -30.53125 C 9.8125 -30.882812 9.882812 -31.300781 10.03125 -31.78125 C 10.175781 -32.269531 10.46875 -32.695312 10.90625 -33.0625 C 11.34375 -33.4375 11.976562 -33.625 12.8125 -33.625 C 14.238281 -33.625 14.953125 -32.894531 14.953125 -31.4375 C 14.953125 -31.375 14.910156 -31.164062 14.828125 -30.8125 C 14.742188 -30.457031 14.660156 -30.101562 14.578125 -29.75 C 14.503906 -29.394531 14.453125 -29.171875 14.421875 -29.078125 L 14.515625 -27.09375 L 14.375 -25.5 C 14.375 -25.300781 14.410156 -25.117188 14.484375 -24.953125 C 14.566406 -24.796875 14.722656 -24.71875 14.953125 -24.71875 L 16.984375 -24.53125 C 17.335938 -24.5 17.726562 -24.335938 18.15625 -24.046875 C 18.59375 -23.753906 18.960938 -23.390625 19.265625 -22.953125 C 19.578125 -22.515625 19.734375 -22.070312 19.734375 -21.625 Z M 19.734375 -21.625 "/></g></g></g><g fill="#000000" fill-opacity="1"><g transform="translate(296.197493, 34.667921)"><g><path d="M 12.046875 -19.875 L 11.703125 -17.265625 L 12 -12.046875 L 11.703125 -10.84375 C 11.703125 -10.84375 11.632812 -10.539062 11.5 -9.9375 C 11.375 -9.34375 11.3125 -8.785156 11.3125 -8.265625 C 11.3125 -7.910156 11.34375 -7.5 11.40625 -7.03125 C 11.476562 -6.570312 11.546875 -6.160156 11.609375 -5.796875 C 11.671875 -5.441406 11.703125 -5.265625 11.703125 -5.265625 L 11.46875 -4.0625 C 11.269531 -3.382812 10.910156 -2.78125 10.390625 -2.25 C 9.878906 -1.71875 9.316406 -1.453125 8.703125 -1.453125 C 7.898438 -1.453125 7.320312 -1.6875 6.96875 -2.15625 C 6.613281 -2.625 6.4375 -3.375 6.4375 -4.40625 C 6.4375 -4.5625 6.484375 -4.804688 6.578125 -5.140625 C 6.671875 -5.484375 6.71875 -5.816406 6.71875 -6.140625 L 6.578125 -9.140625 C 6.578125 -9.140625 6.523438 -9.679688 6.421875 -10.765625 C 6.328125 -11.847656 6.28125 -13.03125 6.28125 -14.3125 C 6.28125 -15.15625 6.320312 -15.953125 6.40625 -16.703125 C 6.488281 -17.460938 6.609375 -18.085938 6.765625 -18.578125 L 7.203125 -19.734375 L 7.6875 -21.140625 C 7.851562 -21.523438 8.171875 -21.882812 8.640625 -22.21875 C 9.109375 -22.5625 9.550781 -22.734375 9.96875 -22.734375 C 10.507812 -22.734375 10.910156 -22.570312 11.171875 -22.25 C 11.429688 -21.925781 11.597656 -21.59375 11.671875 -21.25 C 11.753906 -20.914062 11.796875 -20.75 11.796875 -20.75 Z M 11.75 -30.328125 C 11.75 -29.140625 11.398438 -28.164062 10.703125 -27.40625 C 10.015625 -26.644531 9.332031 -26.265625 8.65625 -26.265625 C 8.625 -26.265625 8.578125 -26.265625 8.515625 -26.265625 C 8.453125 -26.265625 8.390625 -26.265625 8.328125 -26.265625 C 7.804688 -26.265625 7.316406 -26.351562 6.859375 -26.53125 C 6.410156 -26.707031 6.109375 -26.957031 5.953125 -27.28125 L 5.21875 -28.59375 L 5.609375 -30.46875 L 6.875 -31.6875 L 7.890625 -33.140625 L 9.53125 -32.9375 C 10.175781 -32.8125 10.707031 -32.554688 11.125 -32.171875 C 11.539062 -31.785156 11.75 -31.171875 11.75 -30.328125 Z M 11.75 -30.328125 "/></g></g></g><g fill="#000000" fill-opacity="1"><g transform="translate(313.608259, 34.667921)"><g><path d="M 23.75 -11.171875 C 23.75 -10.140625 23.394531 -9.082031 22.6875 -8 C 21.976562 -6.925781 21.109375 -5.921875 20.078125 -4.984375 C 19.046875 -4.046875 18.015625 -3.285156 16.984375 -2.703125 C 15.953125 -2.128906 15.113281 -1.84375 14.46875 -1.84375 C 13.039062 -1.84375 11.765625 -2.007812 10.640625 -2.34375 C 9.515625 -2.6875 8.617188 -3.023438 7.953125 -3.359375 C 7.296875 -3.703125 6.96875 -3.875 6.96875 -3.875 L 5.515625 -4.5 L 4.109375 -6.828125 C 3.628906 -7.628906 3.289062 -8.335938 3.09375 -8.953125 C 2.90625 -9.566406 2.8125 -10.40625 2.8125 -11.46875 C 2.8125 -12.4375 3.078125 -13.472656 3.609375 -14.578125 C 4.140625 -15.691406 4.867188 -16.75 5.796875 -17.75 C 6.734375 -18.75 7.789062 -19.5625 8.96875 -20.1875 C 10.144531 -20.820312 11.363281 -21.140625 12.625 -21.140625 C 12.71875 -21.140625 12.8125 -21.128906 12.90625 -21.109375 C 13.007812 -21.097656 13.109375 -21.09375 13.203125 -21.09375 L 15.234375 -20.890625 L 16.296875 -20.125 L 18.09375 -19.390625 L 18.859375 -18.375 C 18.859375 -18.375 19.109375 -18.132812 19.609375 -17.65625 C 20.109375 -17.175781 20.671875 -16.5625 21.296875 -15.8125 C 21.929688 -15.070312 22.5 -14.289062 23 -13.46875 C 23.5 -12.644531 23.75 -11.878906 23.75 -11.171875 Z M 18.765625 -11.03125 L 18.484375 -12.875 L 18.09375 -13.59375 L 17.078125 -14.078125 L 15.671875 -15.671875 L 13.78125 -15.96875 L 12.1875 -16.59375 C 12.1875 -16.59375 11.9375 -16.523438 11.4375 -16.390625 C 10.9375 -16.265625 10.351562 -16.007812 9.6875 -15.625 C 9.03125 -15.238281 8.453125 -14.707031 7.953125 -14.03125 C 7.453125 -13.351562 7.203125 -12.445312 7.203125 -11.3125 C 7.203125 -10.707031 7.425781 -10.132812 7.875 -9.59375 C 8.332031 -9.0625 8.90625 -8.601562 9.59375 -8.21875 C 10.289062 -7.832031 11.007812 -7.523438 11.75 -7.296875 C 12.5 -7.078125 13.160156 -6.96875 13.734375 -6.96875 C 14.253906 -6.96875 14.914062 -7.128906 15.71875 -7.453125 C 16.53125 -7.773438 17.25 -8.21875 17.875 -8.78125 C 18.5 -9.34375 18.8125 -9.976562 18.8125 -10.6875 C 18.8125 -10.75 18.800781 -10.8125 18.78125 -10.875 C 18.769531 -10.945312 18.765625 -11 18.765625 -11.03125 Z M 18.765625 -11.03125 "/></g></g></g><g fill="#000000" fill-opacity="1"><g transform="translate(340.208057, 34.667921)"><g><path d="M 25.015625 -11.65625 L 24.859375 -8.75 L 24.71875 -6.625 C 24.71875 -6.4375 24.738281 -6.125 24.78125 -5.6875 C 24.832031 -5.25 24.875 -4.84375 24.90625 -4.46875 C 24.945312 -4.101562 24.96875 -3.921875 24.96875 -3.921875 L 23.703125 -2.859375 L 22.828125 -1.890625 C 22.828125 -1.890625 22.65625 -1.921875 22.3125 -1.984375 C 21.976562 -2.046875 21.578125 -2.15625 21.109375 -2.3125 C 20.648438 -2.476562 20.25 -2.695312 19.90625 -2.96875 C 19.5625 -3.25 19.390625 -3.582031 19.390625 -3.96875 C 19.390625 -3.96875 19.390625 -3.972656 19.390625 -3.984375 C 19.390625 -4.003906 19.390625 -4.015625 19.390625 -4.015625 L 19.5 -5.328125 L 19.25 -6.71875 L 19.546875 -9.1875 L 19.546875 -12.875 C 19.546875 -13 19.472656 -13.28125 19.328125 -13.71875 C 19.179688 -14.15625 18.929688 -14.570312 18.578125 -14.96875 C 18.222656 -15.375 17.722656 -15.578125 17.078125 -15.578125 C 16.398438 -15.578125 15.722656 -15.390625 15.046875 -15.015625 C 14.367188 -14.648438 13.945312 -14.414062 13.78125 -14.3125 L 13.015625 -13.453125 L 11.421875 -12.328125 C 11.316406 -12.109375 11.164062 -11.796875 10.96875 -11.390625 C 10.78125 -10.984375 10.554688 -10.640625 10.296875 -10.359375 C 10.109375 -10.035156 10 -9.601562 9.96875 -9.0625 C 9.9375 -8.53125 9.921875 -8.039062 9.921875 -7.59375 C 9.921875 -6.851562 9.96875 -6.320312 10.0625 -6 C 10.15625 -5.675781 10.25 -5.367188 10.34375 -5.078125 C 10.445312 -4.785156 10.5 -4.316406 10.5 -3.671875 C 10.5 -3.191406 10.394531 -2.664062 10.1875 -2.09375 C 9.976562 -1.53125 9.660156 -1.046875 9.234375 -0.640625 C 8.816406 -0.242188 8.285156 -0.046875 7.640625 -0.046875 C 7.285156 -0.046875 6.90625 -0.207031 6.5 -0.53125 C 6.101562 -0.851562 5.765625 -1.164062 5.484375 -1.46875 C 5.210938 -1.78125 5.078125 -1.9375 5.078125 -1.9375 L 5.265625 -4.25 L 5.078125 -5.859375 L 5.421875 -8.46875 L 5.171875 -16.25 L 5.5625 -17.953125 L 5.46875 -19.546875 L 6 -20.21875 L 6.828125 -21.625 C 6.828125 -21.625 6.984375 -21.566406 7.296875 -21.453125 C 7.617188 -21.335938 8 -21.191406 8.4375 -21.015625 C 8.875 -20.835938 9.242188 -20.648438 9.546875 -20.453125 C 9.859375 -20.265625 10.015625 -20.070312 10.015625 -19.875 L 9.921875 -18.671875 C 9.921875 -18.640625 9.921875 -18.625 9.921875 -18.625 C 9.921875 -18.625 9.921875 -18.609375 9.921875 -18.578125 C 9.921875 -18.347656 9.992188 -18.175781 10.140625 -18.0625 C 10.285156 -17.957031 10.421875 -17.90625 10.546875 -17.90625 C 10.609375 -17.90625 10.65625 -17.921875 10.6875 -17.953125 C 11.007812 -18.109375 11.289062 -18.320312 11.53125 -18.59375 C 11.78125 -18.875 11.90625 -19.015625 11.90625 -19.015625 L 13.0625 -19.734375 C 13.25 -19.867188 13.738281 -20.113281 14.53125 -20.46875 C 15.320312 -20.820312 16.234375 -21 17.265625 -21 C 18.265625 -21 19.222656 -20.738281 20.140625 -20.21875 C 21.066406 -19.707031 22 -18.851562 22.9375 -17.65625 C 23.539062 -16.914062 23.988281 -16.242188 24.28125 -15.640625 C 24.570312 -15.046875 24.71875 -14.570312 24.71875 -14.21875 L 24.671875 -13.34375 Z M 25.015625 -11.65625 "/></g></g></g></g></g></g><g mask="url(#0e49b393e6)"><g transform="matrix(1, 0, 0, 1, 32, 53)"><g clip-path="url(#fb03900d57)"><g clip-path="url(#122c3aa95f)"><path fill="#000000" d="M 46.089844 107.789062 C 44.910156 108.164062 43.796875 108.597656 42.679688 108.96875 C 41.871094 109.277344 41.128906 109.03125 40.570312 108.410156 C 40.136719 107.976562 39.824219 107.417969 39.453125 106.921875 C 39.207031 106.550781 39.082031 106.179688 38.894531 105.746094 C 38.460938 104.695312 37.59375 104.324219 36.539062 104.324219 C 36.042969 104.324219 35.484375 104.382812 35.050781 104.570312 C 33.375 105.25 31.699219 105.871094 30.085938 106.613281 C 28.351562 107.417969 26.613281 108.347656 24.878906 109.214844 C 24.382812 109.460938 23.824219 109.648438 23.265625 109.585938 C 22.273438 109.523438 21.589844 108.96875 21.589844 108.039062 C 21.589844 107.355469 21.28125 106.863281 20.847656 106.429688 C 20.164062 105.746094 19.417969 105.191406 18.613281 104.757812 C 17.929688 104.445312 17.3125 104.074219 16.628906 103.703125 C 15.140625 102.960938 14.269531 101.84375 14.457031 99.925781 C 14.085938 100.171875 13.773438 100.359375 13.527344 100.546875 C 10.859375 102.710938 8.253906 104.757812 5.773438 106.863281 C 4.285156 108.101562 3.355469 109.773438 2.546875 111.507812 C 2.488281 111.691406 2.425781 111.878906 2.300781 112.0625 C 2.050781 112.496094 1.554688 112.746094 1.058594 112.621094 C 0.5625 112.496094 0.191406 112.0625 0.191406 111.566406 C 0.191406 111.257812 0.253906 110.886719 0.378906 110.578125 C 1.121094 108.71875 2.113281 106.921875 3.539062 105.4375 C 4.472656 104.445312 5.585938 103.578125 6.582031 102.710938 C 9 100.667969 11.480469 98.75 14.085938 96.953125 C 16.132812 95.527344 18.179688 94.042969 20.226562 92.617188 C 21.902344 91.441406 23.699219 90.328125 25.558594 89.460938 C 26.675781 88.902344 27.792969 88.285156 28.847656 87.664062 C 30.523438 86.671875 32.320312 85.867188 34.242188 85.371094 C 34.738281 85.25 35.234375 85 35.730469 84.816406 C 36.726562 84.445312 37.65625 83.949219 38.648438 83.640625 C 39.703125 83.265625 40.507812 82.710938 41.128906 81.78125 C 41.4375 81.285156 41.871094 80.851562 42.554688 80.789062 C 42.742188 80.726562 42.988281 80.542969 43.113281 80.292969 C 43.484375 79.613281 43.859375 78.871094 44.167969 78.1875 C 44.789062 76.828125 45.46875 75.527344 46.339844 74.351562 C 46.773438 73.730469 47.207031 73.050781 47.578125 72.429688 C 48.011719 71.6875 48.507812 71.066406 49.191406 70.570312 C 50.617188 69.519531 51.984375 68.40625 53.78125 67.972656 C 55.519531 67.597656 56.757812 66.484375 58 65.371094 C 59.238281 64.195312 60.480469 62.953125 61.722656 61.714844 C 61.90625 61.53125 62.15625 61.28125 62.277344 61.097656 C 63.085938 59.796875 64.140625 58.804688 65.503906 58.125 C 66.1875 57.753906 66.746094 57.195312 67.179688 56.578125 C 68.171875 55.089844 69.164062 53.605469 70.09375 52.054688 C 70.902344 50.753906 71.832031 49.515625 72.949219 48.464844 C 74.683594 46.730469 76.359375 44.996094 78.035156 43.199219 C 79.089844 42.085938 80.390625 41.21875 81.691406 40.414062 C 83.183594 39.546875 84.609375 39.730469 85.847656 40.910156 C 87.089844 42.085938 88.207031 43.386719 89.382812 44.625 C 89.695312 44.996094 90.003906 45.367188 90.253906 45.738281 C 91.246094 47.101562 92.609375 48.03125 94.285156 48.464844 C 94.84375 48.648438 95.402344 48.835938 96.019531 48.960938 C 98.875 49.515625 101.292969 50.878906 103.589844 52.675781 C 104.890625 53.726562 105.882812 55.027344 106.6875 56.453125 C 107.246094 57.382812 107.867188 58.371094 108.488281 59.363281 C 108.675781 59.117188 108.796875 58.992188 108.921875 58.804688 C 109.234375 58.1875 109.542969 57.503906 109.730469 56.824219 C 110.226562 55.214844 111.03125 53.789062 112.085938 52.488281 C 112.769531 51.683594 113.386719 50.878906 114.070312 50.011719 C 114.753906 49.144531 115.371094 48.277344 115.992188 47.410156 C 116.738281 46.296875 117.730469 46.109375 118.847656 46.914062 C 119.15625 47.164062 119.464844 47.472656 119.777344 47.78125 C 120.707031 48.835938 121.636719 49.886719 122.628906 50.941406 C 123.003906 51.375 123.4375 51.746094 124.117188 51.933594 C 124.800781 51.066406 125.421875 50.257812 126.101562 49.394531 C 126.414062 49.019531 126.660156 48.585938 126.972656 48.214844 C 128.460938 46.359375 129.949219 44.5 131.4375 42.582031 C 131.996094 41.835938 132.554688 40.96875 132.988281 40.164062 C 133.792969 38.492188 134.785156 36.882812 136.152344 35.582031 C 137.828125 33.972656 139.5 32.300781 141.175781 30.691406 C 143.65625 28.335938 145.578125 25.613281 147.066406 22.515625 C 147.8125 21.03125 148.679688 19.605469 149.550781 18.179688 C 150.292969 16.878906 151.285156 15.828125 152.464844 14.835938 C 152.835938 14.527344 153.148438 14.21875 153.457031 13.847656 C 155.691406 11.308594 157.921875 8.769531 160.21875 6.230469 C 161.394531 4.929688 162.574219 3.691406 163.753906 2.453125 C 164.558594 1.585938 165.675781 1.152344 166.855469 0.902344 C 167.226562 0.839844 167.597656 0.839844 167.910156 0.964844 C 169.023438 1.398438 169.832031 2.203125 170.328125 3.257812 C 170.636719 4 171.011719 4.679688 171.445312 5.363281 C 172.1875 6.476562 172.808594 7.714844 173.304688 9.015625 C 174.050781 11.058594 175.105469 12.980469 176.21875 14.898438 C 176.714844 15.765625 177.460938 16.324219 178.453125 16.695312 C 179.445312 17.066406 180.4375 17.3125 181.492188 17.375 C 183.664062 17.5625 185.214844 18.675781 186.515625 20.285156 C 186.886719 20.78125 187.199219 21.523438 187.261719 22.144531 C 187.507812 24.003906 188.4375 25.488281 189.308594 27.035156 C 189.804688 27.839844 190.546875 28.460938 191.355469 28.894531 C 192.410156 29.515625 193.464844 30.132812 194.457031 30.8125 C 195.015625 31.1875 195.511719 31.679688 196.007812 32.175781 C 196.8125 32.917969 197.558594 33.785156 198.363281 34.46875 C 199.664062 35.582031 200.96875 36.699219 202.332031 37.8125 C 202.519531 37.5625 202.765625 37.378906 202.953125 37.132812 C 204.441406 35.148438 205.992188 33.167969 207.417969 31.125 C 208.410156 29.699219 209.714844 28.648438 211.203125 27.839844 C 212.132812 27.347656 213 26.726562 213.746094 26.046875 C 214.179688 25.613281 214.675781 25.242188 215.171875 24.867188 C 216.289062 24.003906 217.28125 23.074219 218.210938 22.019531 C 218.707031 21.523438 219.265625 21.089844 219.824219 20.65625 C 220.507812 20.164062 221.25 20.222656 221.996094 20.71875 C 222.304688 20.96875 222.617188 21.152344 222.863281 21.464844 C 226.523438 25.550781 230.554688 29.203125 234.710938 32.734375 C 235.890625 33.785156 236.941406 34.902344 237.75 36.265625 C 237.996094 36.699219 238.308594 37.132812 238.554688 37.5625 C 239.546875 39.359375 241.035156 40.660156 242.835938 41.652344 C 245.070312 42.890625 247.238281 44.128906 249.472656 45.367188 C 253.378906 47.535156 256.914062 50.320312 260.203125 53.292969 C 261.320312 54.285156 262.0625 55.585938 262.933594 56.761719 C 263.738281 57.9375 264.542969 59.117188 265.351562 60.292969 C 266.40625 61.714844 267.769531 62.707031 269.382812 63.511719 C 270.4375 64.007812 271.367188 64.6875 272.359375 65.308594 C 272.855469 65.617188 273.289062 66.113281 273.601562 66.546875 C 274.777344 68.15625 276.019531 69.828125 277.136719 71.5 C 277.757812 72.429688 278.253906 73.484375 278.75 74.472656 C 279.183594 75.402344 279.804688 76.144531 280.484375 76.886719 C 281.351562 77.753906 282.222656 78.621094 282.964844 79.550781 C 284.332031 81.160156 285.820312 82.585938 287.554688 83.886719 C 289.851562 85.621094 292.207031 87.292969 294.625 88.777344 C 296.859375 90.140625 298.71875 91.875 300.148438 94.105469 C 301.820312 96.707031 303.558594 99.246094 305.234375 101.785156 C 306.226562 103.269531 307.34375 104.632812 308.644531 105.808594 C 308.894531 105.996094 309.203125 106.179688 309.511719 106.304688 C 310.320312 106.613281 310.691406 107.171875 310.566406 107.851562 C 310.445312 108.535156 309.824219 108.90625 309.015625 108.84375 C 307.09375 108.71875 305.480469 107.914062 303.867188 106.984375 C 302.441406 106.117188 301.324219 104.878906 300.582031 103.332031 C 299.714844 101.472656 298.347656 100.171875 296.671875 99.058594 C 293.757812 97.140625 290.96875 95.15625 288.050781 93.175781 C 287.804688 92.988281 287.554688 92.867188 287.246094 92.804688 C 287.371094 93.113281 287.492188 93.484375 287.617188 93.796875 C 287.988281 94.910156 288.425781 96.023438 288.796875 97.140625 C 288.921875 97.574219 288.859375 98.007812 288.921875 98.5 C 288.984375 98.75 288.984375 98.996094 289.105469 99.183594 C 290.347656 100.792969 290.90625 102.710938 291.277344 104.695312 C 291.648438 106.675781 292.890625 108.164062 294.378906 109.460938 C 295.0625 110.019531 295.804688 110.515625 296.550781 110.949219 C 297.726562 111.691406 298.78125 112.496094 299.714844 113.550781 C 299.960938 113.796875 300.148438 114.167969 300.269531 114.480469 C 300.457031 114.972656 300.210938 115.53125 299.773438 115.839844 C 299.339844 116.152344 298.84375 116.089844 298.410156 115.839844 C 298.164062 115.71875 297.976562 115.46875 297.789062 115.285156 C 296.921875 114.417969 295.929688 113.613281 294.8125 112.992188 C 292.519531 111.691406 290.71875 109.835938 289.480469 107.480469 C 289.105469 106.738281 288.859375 105.933594 288.734375 105.128906 C 288.425781 103.394531 287.804688 101.84375 286.75 100.359375 C 285.136719 98.066406 283.835938 95.589844 282.78125 92.929688 C 282.285156 91.628906 281.664062 90.328125 280.917969 89.210938 C 280.050781 87.972656 278.933594 86.921875 277.878906 85.746094 C 276.824219 84.566406 275.648438 83.453125 274.65625 82.277344 C 272.296875 79.550781 270.808594 76.394531 270.1875 72.863281 C 270.003906 71.6875 269.445312 70.945312 268.515625 70.261719 C 267.027344 69.148438 265.351562 68.464844 263.550781 68.03125 C 262 67.660156 260.945312 66.792969 260.203125 65.433594 C 259.519531 64.195312 258.714844 63.078125 257.785156 62.027344 C 256.355469 60.414062 254.992188 58.742188 253.566406 57.070312 C 253.007812 56.390625 252.449219 55.648438 251.953125 54.902344 C 251.148438 53.726562 250.277344 52.738281 249.101562 51.933594 C 246.496094 50.136719 243.890625 48.464844 240.976562 47.347656 C 240.105469 47.039062 239.175781 46.730469 238.308594 46.542969 C 236.445312 46.109375 234.957031 45.058594 233.964844 43.449219 C 233.222656 42.269531 232.601562 41.03125 231.980469 39.792969 C 231.050781 37.996094 230.058594 36.324219 228.816406 34.714844 C 226.335938 31.558594 223.855469 28.335938 221.375 25.117188 C 221.1875 24.867188 220.941406 24.621094 220.691406 24.3125 C 220.132812 25.796875 219.699219 27.222656 219.636719 28.707031 C 219.574219 29.824219 219.574219 30.9375 219.574219 32.054688 C 219.574219 33.042969 219.636719 34.035156 220.011719 34.964844 C 220.195312 35.457031 220.132812 36.015625 220.070312 36.574219 C 219.824219 38.371094 219.453125 40.226562 219.203125 42.023438 C 219.019531 43.386719 219.019531 44.746094 219.761719 45.988281 C 220.132812 46.667969 220.382812 47.410156 220.382812 48.152344 C 220.382812 48.960938 220.132812 49.640625 219.453125 50.074219 C 218.707031 50.570312 217.964844 51.066406 217.09375 51.5 C 216.039062 51.992188 215.234375 51.621094 214.800781 50.507812 C 214.242188 49.019531 213.683594 47.535156 213.125 46.046875 C 212.753906 45.121094 212.257812 44.253906 211.761719 43.386719 C 211.574219 43.015625 211.265625 42.640625 210.832031 42.640625 C 209.652344 42.582031 208.90625 41.898438 208.289062 40.96875 C 208.101562 40.660156 207.851562 40.351562 207.667969 40.042969 C 207.355469 39.484375 206.984375 39.050781 206.363281 38.742188 C 205.992188 38.554688 205.746094 38.183594 205.371094 37.875 C 204.875 38.429688 204.378906 39.050781 203.882812 39.609375 C 205.371094 42.023438 206.921875 44.375 208.410156 46.792969 C 208.90625 47.660156 209.464844 48.527344 209.839844 49.394531 C 210.644531 51.1875 211.511719 52.984375 212.753906 54.59375 C 213.558594 55.648438 214.429688 56.578125 215.359375 57.628906 C 215.605469 57.320312 215.730469 57.132812 215.855469 56.949219 C 216.351562 56.144531 216.910156 55.335938 217.40625 54.53125 C 217.777344 53.976562 218.335938 53.726562 219.019531 53.789062 C 221.125 53.851562 223.050781 54.410156 224.847656 55.523438 C 225.902344 56.144531 227.019531 56.699219 228.199219 57.195312 C 229.808594 57.875 231.359375 58.804688 232.789062 59.796875 C 233.285156 60.105469 233.65625 60.601562 234.152344 60.972656 C 235.453125 62.027344 236.757812 63.078125 238.121094 64.070312 C 239.175781 64.8125 239.921875 65.742188 240.355469 66.917969 C 241.285156 69.273438 242.339844 71.625 243.890625 73.605469 C 245.625 75.835938 247.488281 78.003906 249.347656 80.171875 C 250.09375 81.101562 250.960938 81.90625 251.765625 82.832031 C 253.007812 84.195312 254 85.746094 254.804688 87.417969 C 255.738281 89.398438 256.667969 91.378906 257.597656 93.363281 C 257.785156 93.734375 257.90625 94.105469 258.28125 94.289062 C 258.464844 94.414062 258.589844 94.601562 258.714844 94.785156 C 260.449219 97.140625 262.1875 99.492188 264.234375 101.597656 C 264.605469 101.96875 264.980469 102.277344 265.414062 102.527344 C 266.964844 103.457031 268.515625 104.324219 270.066406 105.25 C 270.3125 105.375 270.621094 105.5 270.933594 105.625 C 271.738281 105.871094 272.113281 106.550781 271.863281 107.355469 C 271.617188 108.039062 270.871094 108.410156 270.125 108.222656 C 269.878906 108.164062 269.628906 108.039062 269.445312 107.914062 C 268.886719 107.605469 268.328125 107.234375 267.707031 106.984375 C 267.335938 106.800781 266.964844 106.800781 266.589844 106.613281 C 266.09375 106.429688 265.597656 106.304688 265.226562 105.996094 C 263.054688 104.445312 260.886719 102.898438 258.714844 101.351562 C 257.410156 100.484375 256.355469 99.367188 255.675781 97.945312 C 255.300781 97.199219 254.929688 96.394531 254.558594 95.652344 C 254.496094 95.46875 254.371094 95.28125 254.371094 95.09375 C 254.371094 94.226562 253.8125 93.671875 253.378906 93.113281 C 253.132812 92.804688 252.882812 92.496094 252.636719 92.183594 C 250.09375 89.460938 247.671875 86.609375 245.625 83.515625 C 244.945312 82.523438 244.261719 81.472656 243.578125 80.480469 C 243.023438 79.613281 242.402344 78.808594 241.78125 78.003906 C 240.601562 76.457031 239.363281 74.96875 238.183594 73.421875 C 237.6875 72.738281 237.191406 72.058594 236.820312 71.378906 C 235.332031 68.652344 233.46875 66.238281 231.113281 64.253906 C 230.058594 63.386719 228.941406 62.582031 227.761719 61.964844 C 226.523438 61.34375 225.40625 60.539062 224.164062 59.796875 C 223.359375 59.300781 222.613281 58.867188 221.808594 58.371094 C 221.066406 57.9375 220.816406 58 220.507812 58.804688 C 220.195312 59.488281 220.011719 60.230469 219.761719 60.972656 C 219.636719 61.40625 219.761719 61.714844 220.070312 62.027344 C 221.933594 63.699219 222.554688 65.988281 223.234375 68.21875 C 223.359375 68.589844 223.296875 69.023438 223.234375 69.394531 C 222.863281 71.5625 222.675781 73.792969 222.058594 75.960938 C 221.683594 77.199219 221.3125 78.375 221.003906 79.675781 C 220.753906 80.789062 220.628906 81.964844 220.507812 83.207031 C 220.941406 83.328125 221.375 83.453125 221.746094 83.578125 C 223.421875 83.886719 224.722656 84.753906 225.902344 86.054688 C 227.761719 88.160156 229.4375 90.328125 231.546875 92.183594 C 232.292969 92.804688 232.789062 93.671875 233.160156 94.601562 C 233.53125 95.652344 234.027344 96.644531 234.460938 97.632812 C 234.710938 98.253906 234.957031 98.875 234.894531 99.492188 C 234.773438 100.917969 234.710938 102.402344 234.523438 103.828125 C 234.460938 104.507812 234.152344 105.128906 233.84375 105.746094 C 233.222656 106.863281 232.105469 106.921875 231.238281 105.996094 C 230.742188 105.375 230.246094 104.757812 229.871094 104.074219 C 229.066406 102.464844 228.011719 101.101562 226.707031 99.863281 C 225.714844 98.933594 224.910156 97.882812 224.414062 96.644531 C 223.792969 95.21875 222.738281 94.226562 221.3125 93.609375 C 220.382812 93.238281 219.515625 92.742188 218.523438 92.246094 C 218.460938 92.617188 218.398438 92.929688 218.335938 93.238281 C 218.210938 94.476562 218.148438 95.714844 217.902344 96.953125 C 217.714844 97.882812 217.46875 98.8125 217.03125 99.617188 C 216.101562 101.535156 214.984375 103.332031 213.992188 105.191406 C 213.375 106.367188 212.503906 107.355469 211.386719 108.039062 C 210.890625 108.347656 210.457031 108.65625 210.148438 109.214844 C 210.023438 109.402344 209.839844 109.585938 209.652344 109.648438 C 208.785156 110.207031 207.730469 109.585938 207.730469 108.535156 C 207.730469 108.285156 207.851562 107.976562 207.914062 107.730469 C 208.039062 107.171875 208.164062 106.550781 208.289062 105.996094 C 208.347656 105.625 208.472656 105.25 208.597656 104.941406 C 209.28125 102.710938 209.960938 100.484375 210.582031 98.253906 C 211.078125 96.457031 211.015625 94.601562 210.582031 92.804688 C 210.273438 91.378906 209.839844 89.957031 209.464844 88.53125 C 209.28125 87.789062 209.21875 86.984375 209.402344 86.238281 C 209.960938 84.074219 210.519531 81.964844 211.078125 79.800781 C 211.636719 77.632812 212.195312 75.402344 212.753906 73.171875 C 212.878906 72.738281 212.878906 72.242188 212.878906 71.808594 C 212.753906 70.632812 213 69.519531 213.3125 68.34375 C 213.746094 66.855469 214.179688 65.433594 214.613281 63.945312 C 214.863281 63.203125 214.675781 62.460938 214.675781 61.65625 C 214.675781 60.601562 214.117188 59.980469 213.433594 59.363281 C 211.265625 57.320312 209.464844 54.84375 208.289062 52.117188 C 207.355469 50.074219 206.242188 48.152344 204.9375 46.296875 C 204.378906 45.429688 203.882812 44.5625 203.386719 43.632812 C 202.890625 42.703125 202.394531 41.835938 201.652344 41.15625 C 200.347656 39.917969 199.109375 38.742188 197.804688 37.5625 C 196.566406 36.449219 195.386719 35.273438 194.144531 34.160156 C 193.523438 33.601562 192.90625 32.980469 192.160156 32.546875 C 191.292969 31.992188 190.363281 31.496094 189.308594 30.875 C 189.246094 31.308594 189.183594 31.679688 189.183594 31.992188 C 189.121094 33.847656 189.121094 35.707031 189.429688 37.503906 C 189.554688 38.371094 189.679688 39.296875 189.308594 40.101562 C 188.8125 41.34375 188.875 42.582031 189.121094 43.820312 C 189.617188 45.988281 189.371094 48.09375 188.996094 50.257812 C 188.8125 51.3125 188.625 52.304688 188.4375 53.355469 C 188.316406 54.222656 188.378906 55.089844 188.6875 55.957031 C 189.492188 57.9375 190.425781 59.859375 191.539062 61.65625 C 192.347656 63.015625 192.96875 64.441406 193.585938 65.867188 C 194.082031 67.042969 194.207031 68.28125 193.648438 69.519531 C 192.96875 70.945312 191.726562 71.191406 190.734375 69.953125 C 189.554688 68.527344 188.378906 67.042969 187.199219 65.554688 C 185.460938 63.265625 183.789062 60.972656 182.113281 58.742188 C 181.304688 57.628906 180.625 56.453125 180.066406 55.214844 C 179.695312 54.347656 179.570312 53.542969 179.816406 52.613281 C 180.128906 51.621094 180.4375 50.632812 180.808594 49.640625 C 181.800781 46.914062 181.925781 47.660156 180.4375 45.429688 C 179.632812 44.128906 178.949219 42.828125 178.390625 41.402344 C 178.082031 40.660156 178.019531 39.917969 178.144531 39.175781 C 178.265625 38.554688 178.390625 37.9375 178.515625 37.316406 C 178.640625 36.511719 178.699219 35.707031 178.761719 34.839844 C 178.824219 32.980469 178.824219 31.0625 178.949219 29.203125 C 179.074219 27.097656 178.453125 25.242188 177.707031 23.320312 C 176.964844 21.523438 176.15625 19.789062 175.351562 18.058594 C 175.289062 17.933594 175.226562 17.808594 175.105469 17.683594 C 174.050781 16.632812 173.367188 15.332031 172.746094 14.03125 C 171.941406 12.421875 171.320312 10.6875 170.515625 9.078125 C 169.957031 7.902344 169.273438 6.785156 168.589844 5.671875 C 168.527344 5.546875 168.46875 5.421875 168.40625 5.421875 C 168.15625 5.300781 167.847656 5.113281 167.535156 5.175781 C 167.351562 5.238281 167.164062 5.546875 167.101562 5.796875 C 166.855469 7.097656 166.605469 8.394531 166.421875 9.757812 C 166.109375 11.863281 165.863281 13.90625 165.613281 16.011719 C 165.488281 17.3125 165.488281 18.613281 165.367188 19.914062 C 165.054688 23.691406 164.0625 27.347656 162.265625 30.753906 C 161.148438 32.796875 160.464844 34.902344 159.96875 37.128906 C 159.84375 37.875 159.722656 38.617188 159.722656 39.296875 C 159.722656 41.464844 159.785156 43.632812 159.84375 45.800781 C 159.90625 46.730469 159.722656 47.597656 159.289062 48.402344 C 158.605469 49.765625 157.613281 50.878906 156.558594 51.992188 C 155.628906 52.984375 154.636719 53.851562 153.828125 54.902344 C 152.527344 56.515625 151.410156 58.25 150.167969 59.921875 C 149.734375 60.539062 149.550781 61.34375 149.488281 62.085938 C 149.363281 63.574219 149.175781 65 149.113281 66.484375 C 148.992188 68.34375 149.488281 70.078125 150.605469 71.625 C 151.535156 72.988281 152.277344 74.410156 152.589844 76.023438 C 152.710938 76.703125 152.773438 77.445312 152.652344 78.128906 C 152.339844 79.613281 151.71875 81.039062 150.851562 82.339844 C 150.105469 83.453125 149.363281 84.566406 148.617188 85.683594 C 147.503906 87.355469 147.191406 89.148438 147.6875 91.132812 C 148.496094 94.476562 149.550781 97.695312 150.789062 100.855469 C 151.96875 103.765625 153.207031 106.675781 154.324219 109.648438 C 154.882812 111.136719 155.316406 112.746094 155.75 114.292969 C 155.9375 115.097656 155.503906 115.78125 154.820312 115.964844 C 154.386719 116.089844 153.953125 116.027344 153.582031 115.71875 C 153.023438 115.222656 152.402344 114.726562 151.90625 114.167969 C 151.597656 113.796875 151.347656 113.363281 151.160156 112.929688 C 150.167969 110.824219 148.804688 108.96875 147.503906 107.109375 C 146.882812 106.242188 146.386719 105.25 145.828125 104.382812 C 144.960938 103.023438 144.152344 101.660156 143.222656 100.421875 C 142.539062 99.492188 141.921875 98.5 141.421875 97.449219 C 141.113281 96.765625 140.742188 96.085938 140.308594 95.40625 C 139.996094 94.910156 139.5625 94.476562 139.066406 94.105469 C 138.382812 93.609375 137.578125 93.421875 136.710938 93.796875 C 135.78125 94.289062 134.847656 94.722656 134.105469 95.34375 C 132.617188 96.519531 131.191406 97.820312 129.699219 98.996094 C 128.335938 100.171875 126.910156 101.289062 125.546875 102.402344 C 123.871094 103.765625 122.195312 105.128906 120.519531 106.550781 C 117.855469 108.78125 114.816406 110.390625 111.464844 111.382812 C 110.535156 111.691406 109.480469 111.753906 108.550781 111.816406 C 107.1875 111.878906 106.378906 110.824219 106.691406 109.523438 C 107.1875 107.296875 107.992188 105.191406 109.234375 103.207031 C 111.464844 99.679688 113.761719 96.148438 116.488281 92.988281 C 117.667969 91.6875 118.722656 90.265625 119.839844 88.902344 C 120.085938 88.53125 120.273438 88.097656 120.460938 87.726562 C 120.582031 87.417969 120.519531 87.167969 120.273438 86.984375 C 119.839844 86.671875 119.40625 86.425781 118.910156 86.117188 C 118.660156 85.992188 118.414062 85.992188 118.164062 85.929688 C 115.0625 84.691406 111.714844 84.320312 108.488281 83.453125 C 107.125 83.082031 106.070312 82.398438 104.953125 81.59375 C 104.332031 81.101562 104.207031 80.355469 104.644531 79.675781 C 105.386719 78.621094 106.132812 77.570312 106.875 76.578125 C 107.496094 75.835938 108.363281 75.339844 109.234375 74.96875 C 111.03125 74.226562 112.644531 73.171875 114.132812 71.871094 C 114.378906 71.6875 114.628906 71.4375 114.753906 71.191406 C 115.125 70.015625 115.992188 69.148438 116.863281 68.34375 C 118.039062 67.351562 118.785156 66.050781 119.464844 64.6875 C 119.902344 63.820312 119.964844 62.832031 119.464844 61.964844 C 118.289062 59.921875 117.667969 57.691406 117.109375 55.398438 C 116.800781 54.285156 116.488281 53.171875 116.179688 51.929688 C 115.992188 52.054688 115.808594 52.179688 115.746094 52.304688 C 115.25 52.921875 114.753906 53.480469 114.320312 54.097656 C 113.574219 55.089844 112.953125 56.082031 112.519531 57.257812 C 111.960938 58.867188 111.15625 60.292969 110.164062 61.65625 C 109.851562 62.085938 109.667969 62.519531 109.355469 62.953125 C 109.171875 63.203125 108.921875 63.449219 108.675781 63.699219 C 108.363281 63.945312 108.054688 64.195312 108.117188 64.6875 C 108.117188 64.9375 107.992188 65.183594 107.804688 65.371094 C 106.253906 67.105469 104.765625 68.839844 103.214844 70.511719 C 102.097656 71.75 100.671875 72.738281 99.371094 73.792969 C 98.441406 74.535156 97.570312 75.214844 96.703125 76.023438 C 95.460938 77.136719 94.285156 78.3125 93.042969 79.488281 C 92.734375 79.800781 92.421875 80.109375 92.175781 80.417969 C 90.375 82.894531 88.390625 85.25 86.839844 87.910156 C 85.972656 89.398438 84.734375 90.511719 83.492188 91.628906 C 82.746094 92.371094 82.003906 93.113281 81.136719 93.734375 C 80.265625 94.476562 79.335938 95.09375 78.34375 95.714844 C 77.414062 96.335938 76.546875 96.953125 75.738281 97.757812 C 75.304688 98.191406 74.808594 98.5625 74.375 98.933594 C 73.257812 99.988281 72.140625 101.039062 70.960938 102.03125 C 70.652344 102.277344 70.527344 102.589844 70.589844 103.023438 C 70.652344 103.332031 70.589844 103.703125 70.652344 104.011719 C 70.777344 105.128906 70.527344 106.242188 70.03125 107.234375 C 68.855469 109.773438 67.179688 111.878906 64.699219 113.300781 C 63.707031 113.859375 62.777344 114.480469 61.78125 115.097656 C 61.410156 115.347656 61.039062 115.59375 60.851562 116.027344 C 60.480469 116.707031 59.796875 116.957031 59.054688 116.894531 C 58.496094 116.832031 58.0625 116.585938 57.875 116.027344 C 57.6875 115.46875 57.75 114.972656 58.125 114.539062 C 58.308594 114.355469 58.558594 114.167969 58.742188 113.984375 C 59.488281 113.488281 60.230469 112.992188 60.976562 112.558594 C 61.84375 112 62.714844 111.445312 63.582031 110.949219 C 65.628906 109.773438 66.867188 107.914062 67.800781 105.808594 C 67.984375 105.4375 68.046875 105.003906 68.046875 104.570312 C 68.046875 103.828125 67.984375 103.023438 67.921875 102.277344 C 67.863281 101.414062 68.046875 100.605469 68.480469 99.925781 C 68.855469 99.304688 69.226562 98.75 69.722656 98.191406 C 70.714844 96.953125 71.769531 95.777344 72.824219 94.601562 C 73.195312 94.167969 73.503906 93.734375 73.566406 93.113281 C 73.691406 92.308594 74.125 91.628906 74.746094 91.070312 C 75.179688 90.699219 75.550781 90.390625 76.050781 90.078125 C 78.652344 88.46875 80.640625 86.238281 82.3125 83.761719 C 83.429688 82.027344 84.546875 80.292969 85.414062 78.375 C 86.035156 76.886719 87.027344 75.589844 88.144531 74.410156 C 89.136719 73.296875 90.191406 72.304688 91.246094 71.191406 C 91.867188 70.570312 92.484375 69.890625 92.917969 69.148438 C 93.914062 67.539062 95.402344 66.792969 97.199219 66.546875 C 98.191406 66.421875 99.183594 66.238281 100.175781 66.484375 C 100.671875 66.609375 101.105469 66.359375 101.542969 66.050781 C 103.09375 64.875 104.703125 63.699219 106.253906 62.519531 C 107.0625 61.902344 107.125 61.65625 106.628906 60.847656 C 105.636719 59.238281 104.644531 57.628906 103.710938 56.082031 C 103.589844 55.894531 103.464844 55.710938 103.277344 55.523438 C 101.230469 53.726562 99.121094 52.054688 96.394531 51.5 C 95.710938 51.375 95.027344 51.125 94.347656 50.941406 C 91.804688 50.257812 89.820312 48.960938 88.269531 46.855469 C 87.523438 45.800781 86.59375 44.871094 85.785156 43.882812 C 85.726562 43.941406 85.664062 43.941406 85.601562 44.003906 C 85.664062 44.316406 85.726562 44.625 85.847656 44.933594 C 86.777344 47.101562 86.46875 49.082031 85.289062 51.066406 C 84.359375 52.550781 83.800781 54.160156 83.242188 55.832031 C 82.375 58.433594 81.257812 60.972656 80.265625 63.574219 C 79.273438 66.238281 77.164062 67.847656 74.933594 69.332031 C 74.4375 69.644531 73.878906 69.703125 73.320312 69.394531 C 72.761719 69.085938 72.574219 68.527344 72.636719 67.910156 C 72.761719 66.980469 72.949219 66.050781 73.195312 65.183594 C 73.816406 63.015625 74.125 60.726562 74.4375 58.496094 C 74.5 57.9375 74.5 57.382812 74.25 56.824219 C 74.003906 56.265625 73.816406 55.648438 73.566406 54.964844 C 71.957031 57.628906 70.527344 60.230469 70.15625 63.328125 C 69.96875 64.6875 69.785156 66.050781 69.660156 67.414062 C 69.472656 68.777344 69.039062 70.078125 68.296875 71.191406 C 68.109375 71.5 67.921875 71.75 67.675781 71.996094 C 64.449219 75.835938 62.402344 80.355469 60.292969 84.816406 C 59.984375 85.496094 59.734375 86.238281 59.675781 87.042969 C 59.488281 88.40625 59.117188 89.644531 58.558594 90.882812 C 57.503906 93.421875 56.449219 95.960938 55.332031 98.5 C 54.152344 101.226562 52.664062 103.828125 50.929688 106.242188 C 50.246094 107.171875 49.5625 108.164062 48.882812 109.089844 C 48.695312 109.339844 48.507812 109.523438 48.324219 109.710938 C 47.890625 110.019531 47.457031 110.082031 46.957031 109.835938 C 46.460938 109.585938 46.214844 109.214844 46.214844 108.65625 C 45.964844 108.347656 46.027344 108.039062 46.089844 107.789062 Z M 54.402344 70.511719 C 54.089844 70.570312 53.96875 70.632812 53.84375 70.632812 C 52.976562 70.882812 52.292969 71.5 51.546875 71.996094 C 50.742188 72.492188 50.058594 73.171875 49.5625 74.101562 C 49.316406 74.535156 49.066406 74.96875 48.820312 75.339844 C 47.640625 76.949219 46.710938 78.683594 45.78125 80.480469 C 45.59375 80.914062 45.53125 81.285156 45.65625 81.71875 C 45.84375 82.398438 46.027344 83.144531 46.152344 83.886719 C 46.460938 85.3125 46.710938 86.734375 47.019531 88.160156 C 47.515625 90.636719 47.640625 93.050781 46.710938 95.46875 C 46.339844 96.335938 46.152344 97.324219 45.964844 98.253906 C 45.78125 98.996094 45.71875 99.738281 45.90625 100.546875 C 46.277344 102.15625 46.585938 103.828125 46.957031 105.4375 C 46.957031 105.5 47.019531 105.5 47.082031 105.5625 C 47.207031 105.3125 47.269531 105.066406 47.394531 104.816406 C 48.199219 102.464844 49.003906 100.113281 49.875 97.757812 C 50.246094 96.828125 50.617188 95.839844 51.113281 94.972656 C 52.789062 92.183594 53.96875 89.152344 55.207031 86.179688 C 55.394531 85.746094 55.519531 85.3125 55.394531 84.753906 C 55.085938 83.207031 55.144531 81.65625 55.765625 80.171875 C 56.015625 79.613281 56.199219 78.996094 56.261719 78.375 C 56.386719 77.695312 56.449219 76.949219 56.261719 76.332031 C 55.703125 74.289062 55.023438 72.429688 54.402344 70.511719 Z M 156.308594 30.691406 C 156.308594 29.574219 156.371094 28.460938 156.308594 27.347656 C 156.308594 26.976562 156.125 26.601562 156 26.230469 C 155.9375 25.984375 155.75 25.734375 155.691406 25.488281 C 155.566406 24.867188 155.132812 24.558594 154.511719 24.683594 C 154.261719 24.746094 154.015625 24.867188 153.828125 24.992188 C 151.285156 26.542969 149.425781 28.648438 148.433594 31.433594 C 147.875 32.980469 147.066406 34.34375 146.074219 35.644531 C 144.339844 37.875 142.539062 40.101562 140.617188 42.148438 C 140.308594 42.457031 139.996094 42.828125 139.8125 43.199219 C 139.4375 43.941406 139.5625 44.996094 140.121094 45.492188 C 140.617188 45.925781 141.363281 46.234375 142.355469 45.675781 C 142.789062 45.429688 143.285156 45.121094 143.84375 44.996094 C 145.394531 44.6875 146.511719 43.820312 147.503906 42.640625 C 148.992188 40.847656 150.664062 39.113281 152.652344 37.8125 C 153.085938 37.503906 153.582031 37.253906 154.078125 37.070312 C 154.695312 36.882812 155.195312 36.511719 155.628906 36.078125 C 156.246094 35.398438 156.371094 34.59375 156.371094 33.785156 C 156.308594 32.859375 156.308594 31.742188 156.308594 30.691406 Z M 134.664062 66.359375 C 134.664062 65.058594 134.664062 63.761719 134.664062 62.460938 C 134.664062 62.085938 134.601562 61.714844 134.414062 61.40625 C 134.230469 61.097656 134.042969 60.847656 134.042969 60.476562 C 133.980469 60.105469 133.734375 59.796875 133.359375 59.859375 C 133.113281 59.859375 132.800781 60.042969 132.554688 60.230469 C 132.429688 60.292969 132.429688 60.476562 132.367188 60.601562 C 131.191406 63.328125 129.949219 66.050781 128.769531 68.777344 C 128.523438 69.394531 128.460938 70.015625 128.523438 70.695312 C 128.707031 71.871094 128.832031 72.988281 129.019531 74.164062 C 129.144531 75.277344 129.328125 76.394531 129.453125 77.507812 C 129.515625 78.003906 129.761719 78.4375 130.320312 78.5625 C 130.816406 78.683594 131.191406 78.375 131.5 78.003906 C 132.304688 77.011719 132.988281 75.960938 133.359375 74.78125 C 133.609375 74.039062 133.917969 73.296875 134.167969 72.554688 C 134.476562 71.6875 134.664062 70.820312 134.664062 69.890625 C 134.664062 68.714844 134.664062 67.539062 134.664062 66.359375 Z M 134.664062 66.359375 " fill-opacity="1" fill-rule="nonzero"/></g><path fill="#000000" d="M 167.289062 100.792969 C 166.296875 100.792969 165.613281 100.605469 165.054688 100.113281 C 163.132812 98.625 161.457031 96.953125 160.777344 94.539062 C 160.527344 93.734375 160.03125 93.050781 159.410156 92.554688 C 158.605469 91.9375 157.984375 91.132812 157.738281 90.140625 C 157.363281 88.53125 156.308594 87.476562 155.070312 86.550781 C 154.261719 85.929688 154.078125 85.25 154.261719 84.257812 C 154.511719 82.894531 154.820312 81.535156 155.253906 80.234375 C 155.441406 79.675781 155.8125 79.425781 156.371094 79.304688 C 157.984375 78.933594 159.101562 79.675781 160.03125 80.851562 C 160.15625 80.976562 160.21875 81.160156 160.339844 81.222656 C 162.386719 83.144531 163.195312 85.621094 163.878906 88.160156 C 164.1875 89.335938 164.683594 90.328125 165.488281 91.195312 C 166.109375 91.8125 166.605469 92.617188 167.039062 93.421875 C 167.785156 94.785156 168.527344 96.148438 168.964844 97.695312 C 169.023438 97.945312 169.085938 98.128906 169.148438 98.378906 C 169.335938 99.617188 168.40625 100.792969 167.289062 100.792969 Z M 167.289062 100.792969 " fill-opacity="1" fill-rule="nonzero"/><path fill="#000000" d="M 204.441406 86.613281 C 204.378906 88.285156 204.070312 89.707031 203.574219 91.070312 C 203.386719 91.628906 202.953125 92 202.332031 92.0625 C 201.710938 92.121094 201.277344 91.8125 201.03125 91.257812 C 200.71875 90.699219 200.472656 90.078125 200.285156 89.460938 C 199.976562 88.65625 199.726562 87.789062 199.480469 86.984375 C 199.355469 86.550781 199.167969 86.179688 199.046875 85.804688 C 198.300781 83.265625 196.875 81.039062 195.261719 78.996094 C 194.765625 78.375 194.332031 77.753906 193.960938 77.074219 C 193.464844 76.269531 193.585938 75.960938 194.144531 75.15625 C 194.765625 74.226562 195.511719 74.101562 196.503906 74.226562 C 198.054688 74.410156 199.542969 74.96875 200.96875 75.527344 C 201.589844 75.773438 201.960938 76.269531 202.207031 76.890625 C 202.890625 78.683594 203.449219 80.480469 203.699219 82.398438 C 203.820312 83.144531 204.007812 83.824219 204.132812 84.566406 C 204.195312 85.371094 204.378906 86.117188 204.441406 86.613281 Z M 204.441406 86.613281 " fill-opacity="1" fill-rule="nonzero"/></g></g></g></svg>