<?xml version="1.0" encoding="UTF-8"?><svg id="a" xmlns="http://www.w3.org/2000/svg" width="8.89in" height="2.12in" viewBox="0 0 640 152.61"><path d="M50.39,124.54h10.05c5.85,0,9.9,3.82,9.9,8.95s-4.05,9.36-10.24,9.36h-4.47v8.45h-5.24v-26.76ZM60.1,138.11c2.98,0,4.89-1.87,4.89-4.44s-1.91-4.43-4.89-4.43h-4.47v8.87h4.47Z" fill="#6d6e70" stroke-width="0"/><path d="M78.15,139.67v-15.14h5.24v14.91c0,5.12,2.67,7.45,6.27,7.45s6.27-2.33,6.27-7.45v-14.91h5.24v15.14c0,8.26-4.55,12.08-11.5,12.08s-11.5-3.82-11.5-12.08Z" fill="#6d6e70" stroke-width="0"/><path d="M110.99,124.54h10.89c4.66,0,8.26,2.83,8.26,7.23,0,2.29-1.11,4.24-2.94,5.54,2.45,1.22,3.97,3.29,3.97,6.04,0,4.36-3.32,7.95-8.94,7.95h-11.24v-26.76ZM121.15,135.43c2.25,0,3.78-1.34,3.78-3.36,0-2.14-1.76-3.1-3.78-3.1h-5.28v6.46h5.28ZM121.3,146.78c2.71,0,4.63-1.26,4.63-3.56,0-2.03-1.45-3.4-4.17-3.4h-5.89v6.96h5.43Z" fill="#6d6e70" stroke-width="0"/><path d="M139.81,124.54h5.24v21.75h12.16v5.01h-17.39v-26.76Z" fill="#6d6e70" stroke-width="0"/><path d="M164.81,124.54h5.28v26.76h-5.28v-26.76Z" fill="#6d6e70" stroke-width="0"/><path d="M178.76,137.92c0-7.38,5.58-13.84,14.03-13.84,2.48,0,5.54.57,7.53,1.68v5.24c-1.95-1.15-4.39-1.87-6.92-1.87-5.81,0-9.13,3.94-9.13,8.79s3.55,8.71,9.25,8.71c2.45,0,4.93-.69,6.8-1.8v5.28c-1.8,1.11-5.12,1.64-7.57,1.64-8.33,0-13.99-6.34-13.99-13.84Z" fill="#6d6e70" stroke-width="0"/><path d="M220.58,149.69v-5.31c2.33,1.45,5.12,2.45,8.06,2.45s5.2-1.07,5.2-2.94c0-4.4-12.65-3.14-12.65-11.74,0-4.78,3.9-8.06,9.48-8.06,2.45,0,5.31.61,7.34,1.68v5.24c-1.99-1.15-4.59-2.03-7.07-2.03s-4.47.96-4.47,2.71c0,4.43,12.81,2.94,12.81,11.85,0,4.85-3.82,8.22-10.32,8.22-3.4,0-6.31-.92-8.37-2.06Z" fill="#6d6e70" stroke-width="0"/><path d="M246.23,137.92c0-7.38,5.58-13.84,14.03-13.84,2.48,0,5.54.57,7.53,1.68v5.24c-1.95-1.15-4.39-1.87-6.92-1.87-5.81,0-9.13,3.94-9.13,8.79s3.55,8.71,9.25,8.71c2.45,0,4.93-.69,6.8-1.8v5.28c-1.8,1.11-5.12,1.64-7.57,1.64-8.33,0-13.99-6.34-13.99-13.84Z" fill="#6d6e70" stroke-width="0"/><path d="M293.02,140.17h-11.28v11.12h-5.24v-26.76h5.24v10.74h11.28v-10.74h5.24v26.76h-5.24v-11.12Z" fill="#6d6e70" stroke-width="0"/><path d="M306.94,137.92c0-7.61,6.16-13.84,13.8-13.84s13.8,6.19,13.8,13.84-6.19,13.84-13.8,13.84-13.8-6.19-13.8-13.84ZM320.74,146.67c4.7,0,8.41-3.94,8.41-8.75s-3.71-8.72-8.41-8.72-8.41,3.86-8.41,8.72,3.71,8.75,8.41,8.75Z" fill="#6d6e70" stroke-width="0"/><path d="M341.69,137.92c0-7.61,6.16-13.84,13.8-13.84s13.8,6.19,13.8,13.84-6.19,13.84-13.8,13.84-13.8-6.19-13.8-13.84ZM355.49,146.67c4.7,0,8.41-3.94,8.41-8.75s-3.71-8.72-8.41-8.72-8.41,3.86-8.41,8.72,3.71,8.75,8.41,8.75Z" fill="#6d6e70" stroke-width="0"/><path d="M377.93,124.54h5.24v21.75h12.16v5.01h-17.39v-26.76Z" fill="#6d6e70" stroke-width="0"/><path d="M401.17,149.69v-5.31c2.33,1.45,5.12,2.45,8.06,2.45s5.2-1.07,5.2-2.94c0-4.4-12.65-3.14-12.65-11.74,0-4.78,3.9-8.06,9.48-8.06,2.45,0,5.31.61,7.34,1.68v5.24c-1.99-1.15-4.59-2.03-7.07-2.03s-4.47.96-4.47,2.71c0,4.43,12.81,2.94,12.81,11.85,0,4.85-3.82,8.22-10.32,8.22-3.4,0-6.31-.92-8.37-2.06Z" fill="#6d6e70" stroke-width="0"/><path d="M0,25.51h17.55l11.24,46.23,12.71-46.23h18.92l12.81,46.33,11.14-46.33h17.54l-20.11,69h-16.26l-14.59-48.59-14.49,48.59h-16.36L0,25.51Z" fill="#da2b1f" stroke-width="0"/><path d="M99.17,69.57c0-15.87,10.84-27.8,26.12-27.8s24.25,10.64,24.25,28.88c0,.69,0,1.58-.1,2.27h-35.48c.39,5.32,5.82,9.66,14.59,9.66,6.41,0,12.52-1.97,16.95-4.93l.1,13.41c-5.42,3.06-11.63,4.63-18.04,4.63-17.25,0-28.39-10.94-28.39-26.12ZM134.65,63.66c-.99-5.62-4.24-9.66-9.96-9.66s-9.36,3.94-10.45,9.66h20.4Z" fill="#da2b1f" stroke-width="0"/><path d="M155.56,92.24v-13.8c6.01,2.86,10.84,4.14,16.66,4.14,5.32,0,8.38-1.28,8.38-3.25,0-5.52-25.03-3.25-25.03-20.31,0-10.84,10.35-17.25,22.37-17.25,4.93,0,10.94,1.09,15.38,2.76v13.01c-5.22-1.97-10.05-2.86-14.59-2.86-5.13,0-8.48,1.18-8.48,3.35,0,5.72,25.53,2.46,25.53,20.21,0,10.05-8.18,17.45-22.87,17.45-7.29,0-13.6-1.87-17.35-3.45Z" fill="#da2b1f" stroke-width="0"/><path d="M226.43,95.69c-11.93,0-20.21-7.29-20.21-22.87v-16.06h-6.7v-13.8h6.7v-14.78h16.07v14.78h11.73v13.8h-12.42v17.05c0,4.73,2.86,7.69,7.98,7.69,1.58,0,3.05-.1,4.44-.49v13.21c-2.37.89-5.03,1.48-7.59,1.48Z" fill="#da2b1f" stroke-width="0"/><path d="M237.87,68.68c0-14.88,12.22-26.91,27.3-26.91s27.11,12.03,27.11,26.91-12.12,27.01-27.11,27.01-27.3-12.02-27.3-27.01ZM265.17,81.5c6.31,0,11.43-5.72,11.43-12.82s-5.13-12.62-11.43-12.62-11.63,5.72-11.63,12.72,5.22,12.72,11.63,12.72Z" fill="#da2b1f" stroke-width="0"/><path d="M323.53,55.97c-5.03,0-8.57,4.14-8.57,10.55v27.99h-16.26v-51.55h15.77v8.77c2.96-6.21,8.48-9.96,15.97-9.96,10.94,0,18.04,7.79,18.04,21v31.74h-16.26v-27.99c0-6.6-3.25-10.55-8.68-10.55Z" fill="#da2b1f" stroke-width="0"/><path d="M359.32,22.06h16.26v38.05l15.57-17.15h18.63l-19.42,20.5,20.3,31.05h-18.04l-13.11-22.18-4.54,4.73v17.45h-15.67V22.06Z" fill="#da2b1f" stroke-width="0"/><path d="M445.37,86.82c-3.75,5.13-9.66,8.87-17.25,8.87-9.76,0-15.48-5.92-15.48-15.28,0-10.94,8.38-16.76,22.67-16.76h8.97v-.59c0-5.32-4.14-8.28-12.52-8.28-5.32,0-10.45,1.38-15.28,4.14v-12.52c5.22-3.05,11.43-4.63,18.63-4.63,17.64,0,24.74,10.55,24.74,24.64v28.09h-14.49v-7.69ZM433.74,83.76c5.52,0,10.94-3.25,10.94-7.98v-3.25h-10.15c-5.13,0-7.98,1.87-7.98,5.72,0,3.55,2.46,5.52,7.19,5.52Z" fill="#da2b1f" stroke-width="0"/><path d="M628.62,14.63c-28.49,0-52.73-12.03-52.94-12.14l-4.94-2.5-8.86,4.08c-14.1,6.58-22.61,10.55-49.48,10.55h-11.41v47.9c0,19.87,10.52,40.3,31.22,60.76,15.25,15.06,30.58,24.62,32.3,25.67l5.93,3.65,5.96-3.65c1.69-1.05,17.08-10.63,32.33-25.64,20.75-20.46,31.28-40.92,31.28-60.78V14.63h-11.38ZM633.34,62.53c0,43.28-57.97,79.26-60.41,80.76l-2.5,1.5-2.47-1.5c-2.47-1.5-60.33-37.48-60.33-80.76V21.26h4.75c28.35,0,37.88-4.43,52.27-11.14l5.93-2.74,2.04,1.05c.27.11,25.64,12.83,55.98,12.83h4.73v41.27Z" fill="#da2b1f" stroke-width="0"/><path d="M628.62,21.26c-30.34,0-55.71-12.73-55.98-12.83l-2.04-1.05-5.93,2.74c-14.39,6.71-23.92,11.14-52.27,11.14h-4.75v41.27c0,43.28,57.86,79.26,60.33,80.76l2.47,1.5,2.5-1.5c2.44-1.5,60.41-37.48,60.41-80.76V21.26h-4.73ZM628.62,62.53c0,41.1-58.18,76.71-58.18,76.71,0,0-58.05-35.6-58.05-76.71V26.02c31.92,0,41.48-5.72,58.1-13.37,0,0,26.18,13.37,58.13,13.37v36.51Z" fill="#fff" stroke-width="0"/><path d="M570.49,12.65c-16.62,7.65-26.18,13.37-58.1,13.37v36.51c0,41.1,58.05,76.71,58.05,76.71,0,0,58.18-35.6,58.18-76.71V26.02c-31.95,0-58.13-13.37-58.13-13.37ZM590.28,104.52h-11.33l-8.43-38.18h-.08l-8.35,38.18h-11.3l-11.97-52.49-13.37-14.44h24.49l7.03,35.01h.08l7.87-35.01h12.08l7.76,35.01h.08l7.03-35.01h13.75l-15.33,66.93Z" fill="#da2b1f" stroke-width="0"/><polygon points="605.61 37.59 590.28 104.52 578.95 104.52 570.52 66.34 570.44 66.34 562.09 104.52 550.78 104.52 538.81 52.03 525.44 37.59 549.92 37.59 556.96 72.6 557.04 72.6 564.91 37.59 576.99 37.59 584.75 72.6 584.83 72.6 591.86 37.59 605.61 37.59" fill="#fff" stroke-width="0"/></svg>